<svg width="149" height="31" viewBox="0 0 149 31" fill="none" xmlns="http://www.w3.org/2000/svg">
<g clip-path="url(#clip0_598_40)">
<path fill-rule="evenodd" clip-rule="evenodd" d="M11.7066 21.9949C14.0957 25.8997 18.4757 28.5296 23.3335 28.5296C30.5008 28.5296 34.4826 22.3136 34.4826 22.3136L34.9605 23.9871C31.6157 28.2905 25.643 30.9203 19.0331 30.9203C11.388 30.9203 4.77819 27.2545 1.752 21.9949C0.637093 20.0026 0 17.8509 0 15.4602C0 6.93316 8.52111 0 19.1128 0C26.5986 0 32.5714 3.18766 35.7568 7.80977L23.2539 15.3008L30.4212 4.30334C28.3506 3.02828 25.8819 1.8329 23.2539 1.8329C15.9273 1.8329 9.87493 7.96915 9.87493 15.3008C9.87493 17.7712 10.512 20.0823 11.7066 21.9949Z" fill="#ED1C24"/>
<path fill-rule="evenodd" clip-rule="evenodd" d="M45.2336 21.9949C45.2336 22.2339 45.1539 22.473 45.1539 22.7121C45.1539 25.5013 47.3837 27.7326 50.171 27.7326C52.9583 27.7326 55.1881 25.5013 55.1881 22.7121C55.1881 22.473 55.1881 22.2339 55.1085 21.9152C54.7103 19.5244 52.6398 17.6118 50.171 17.6118C47.7023 17.7712 45.6317 19.6041 45.2336 21.9949ZM63.9482 21.9949L66.4169 30.4422H57.6569L55.9049 24.7044C54.7103 28.0514 50.8878 30.4422 46.1892 30.4422C40.6146 30.4422 36.155 26.9357 36.155 22.6324C36.155 22.3933 36.155 22.2339 36.155 21.9949C36.5532 17.9306 40.8536 14.7429 46.1892 14.7429C49.2154 14.7429 51.8434 15.7789 53.7547 17.3727L51.3656 9.4036H41.3314C41.3314 9.4036 43.0037 8.36761 50.4099 5.65809C57.8161 2.94858 60.2052 9.4036 60.2052 9.4036L63.9482 21.9949Z" fill="#ED1C24"/>
<path fill-rule="evenodd" clip-rule="evenodd" d="M91.9802 21.9949V30.4422H82.9813V21.9949V11.9538C82.9813 10.599 81.8664 9.48331 80.5126 9.48331C79.4773 9.48331 78.6013 10.1208 78.2031 11.0771V22.0746V30.5219H69.2838V21.9949V9.48331H64.1074C64.1074 9.48331 71.2747 5.10028 73.8231 5.10028C76.2122 5.10028 77.9642 6.93319 78.1235 9.24424C81.6275 7.33164 85.0518 5.10028 87.4409 5.10028C89.9097 5.10028 91.9006 7.09257 91.9802 9.48331V21.9949Z" fill="#ED1C24"/>
<path fill-rule="evenodd" clip-rule="evenodd" d="M105.837 21.9948L107.111 26.1388C107.111 27.892 108.624 29.3265 110.376 29.3265C112.208 29.3265 113.721 27.8123 113.721 25.9794C113.721 25.82 113.721 25.7403 113.721 25.581L112.686 21.9151L108.943 9.08482C108.784 7.41129 107.35 6.13623 105.678 6.13623C104.005 6.13623 102.333 7.73006 102.174 9.32389L105.837 21.9948ZM120.251 21.9948C118.579 27.1748 113.641 30.9203 107.908 30.9203C102.174 30.9203 97.2362 27.1748 95.5639 21.9948C95.1657 20.7198 94.9268 19.365 94.9268 17.9306C94.9268 10.7583 100.74 4.94086 107.908 4.94086C115.075 4.94086 120.888 10.7583 120.888 17.9306C120.888 19.365 120.649 20.7198 120.251 21.9948Z" fill="#ED1C24"/>
<path fill-rule="evenodd" clip-rule="evenodd" d="M135.223 21.9949V30.4422H126.383V21.9949V9.48331H121.446C121.446 9.48331 128.454 5.10028 130.922 5.10028C133.312 5.10028 135.064 6.93319 135.223 9.24424C138.727 7.33164 142.151 5.10028 144.54 5.10028C147.009 5.10028 149 7.09257 149.08 9.48331V21.9949V30.4422H140.081V21.9949V11.9538C140.081 10.599 138.966 9.48331 137.612 9.48331C136.577 9.48331 135.701 10.1208 135.302 11.0771V21.9949H135.223Z" fill="#ED1C24"/>
</g>
<defs>
<clipPath id="clip0_598_40">
<rect width="149" height="31" fill="white"/>
</clipPath>
</defs>
</svg>
