<svg width="183" height="35" viewBox="0 0 183 35" fill="none" xmlns="http://www.w3.org/2000/svg">
<g clip-path="url(#clip0_598_73)">
<path fill-rule="evenodd" clip-rule="evenodd" d="M18.0273 0L36.0546 12.3707C36.0546 12.3707 31.6614 15.2371 26.8137 15.2371C24.5414 15.2371 23.178 14.3319 19.8452 12.2198C16.5124 9.9569 14.9975 8.90086 14.6945 8.59914C13.9371 7.99569 13.0281 8.75 13.6341 9.35345C14.3916 9.9569 35.7517 24.2888 35.7517 24.2888C35.7517 24.2888 27.7227 27.0043 17.8758 35L0 22.4784C0 22.4784 4.39321 19.6121 9.24089 19.6121C11.5132 19.6121 12.8767 20.5172 16.2094 22.6293C19.5422 24.8922 21.0571 25.9483 21.3601 26.25C22.1175 26.7026 23.0265 25.9483 22.269 25.3448C21.6631 24.8922 0.15149 10.7112 0.15149 10.7112C0.15149 10.7112 8.18046 7.99569 18.0273 0Z" fill="#ED1C24"/>
<path fill-rule="evenodd" clip-rule="evenodd" d="M53.476 21.4224C53.476 21.7241 53.9304 23.6853 57.1117 23.6853C59.5356 23.6853 60.1415 22.931 60.1415 22.3276C60.1415 18.7069 44.0836 22.3276 44.0836 13.8793C44.0836 8.74998 49.8402 6.93964 55.8998 6.93964C69.3824 6.93964 68.4735 13.4267 68.4735 13.4267H58.9296C58.9296 12.2198 57.1117 11.1638 55.8998 11.1638C54.8394 11.1638 52.4155 11.1638 52.4155 12.6724C52.4155 15.5388 69.2309 13.4267 69.2309 21.2715C69.2309 23.987 67.716 28.0603 56.2028 28.0603C42.1142 28.0603 43.6291 21.2715 43.6291 21.2715H53.476V21.4224Z" fill="#2E3192"/>
<path d="M183 7.24139H175.728V27.306H183V7.24139Z" fill="#2E3192"/>
<path fill-rule="evenodd" clip-rule="evenodd" d="M147.854 27.306V7.24139H154.974V14.7845L163.761 7.24139H173.911L162.549 16.5948L173.911 27.306H163.609L154.974 19.6121V27.306H147.854Z" fill="#2E3192"/>
<path fill-rule="evenodd" clip-rule="evenodd" d="M108.012 22.3276H119.98V27.306H96.0447V23.2328L108.012 12.3707H96.4991V7.24139H119.98V11.6164L108.012 22.3276Z" fill="#2E3192"/>
<path fill-rule="evenodd" clip-rule="evenodd" d="M69.9884 7.24139H77.8659C77.8659 7.24139 77.8659 15.6897 77.8659 19.7629C77.8659 22.3276 80.1382 23.3836 82.4106 23.3836C84.6829 23.3836 86.9553 22.3276 86.9553 19.7629C86.9553 15.6897 86.9553 7.24139 86.9553 7.24139H94.5298C94.5298 7.24139 94.5298 16.7457 94.5298 21.1207C94.5298 27.0043 87.7127 27.7586 82.2591 27.7586C76.8055 27.7586 69.9884 27.1552 69.9884 21.1207C69.9884 16.8966 69.9884 7.24139 69.9884 7.24139Z" fill="#2E3192"/>
<path fill-rule="evenodd" clip-rule="evenodd" d="M121.344 7.24139H129.221C129.221 7.24139 129.221 15.6897 129.221 19.7629C129.221 22.3276 131.493 23.3836 133.766 23.3836C136.038 23.3836 138.31 22.3276 138.31 19.7629C138.31 15.6897 138.31 7.24139 138.31 7.24139H145.885C145.885 7.24139 145.885 16.7457 145.885 21.1207C145.885 27.0043 139.068 27.7586 133.614 27.7586C128.161 27.7586 121.344 27.1552 121.344 21.1207C121.344 16.8966 121.344 7.24139 121.344 7.24139Z" fill="#2E3192"/>
</g>
<defs>
<clipPath id="clip0_598_73">
<rect width="183" height="35" fill="white"/>
</clipPath>
</defs>
</svg>
