<svg width="70" height="70" viewBox="0 0 70 70" fill="none" xmlns="http://www.w3.org/2000/svg">
<path d="M68.2363 29.5721L61.5117 16.6943C61.0438 15.808 60.2484 15.1393 59.2949 14.8307C58.3414 14.5221 57.3051 14.5978 56.4066 15.0419L49.925 18.2824H45.1976L36.0675 14.1513C35.2349 13.7749 34.2952 13.7085 33.4179 13.964L19.9041 17.9039L13.5937 14.749C12.6952 14.3049 11.6589 14.2291 10.7054 14.5376C9.75181 14.8461 8.95635 15.5146 8.48833 16.4009L1.76368 29.2792C1.52838 29.7299 1.3852 30.2229 1.34251 30.7295C1.29981 31.2361 1.35844 31.7461 1.51498 32.2298C1.67153 32.7135 1.92285 33.1611 2.25427 33.5466C2.5857 33.9321 2.99059 34.2478 3.44532 34.4751L10.057 37.7809L24.8735 49.3668C25.2955 49.6976 25.7827 49.9356 26.3031 50.0651L42.1507 54.027C42.4516 54.102 42.7606 54.1398 43.0708 54.1396C44.0883 54.1397 45.0646 53.7372 45.7863 53.0199L55.848 42.9582C55.8562 42.95 55.8633 42.9415 55.8709 42.9333C55.8815 42.9222 55.8919 42.9109 55.9021 42.8994C55.913 42.8877 55.9243 42.8765 55.9349 42.8639L60.0936 37.9989L66.5552 34.7679C67.0099 34.5406 67.4148 34.2249 67.7462 33.8394C68.0776 33.4539 68.3289 33.0062 68.4854 32.5226C68.6419 32.0389 68.7005 31.5289 68.6578 31.0223C68.6151 30.5157 68.4719 30.0227 68.2366 29.5721H68.2363ZM54.4258 39.5793L43.6212 31.7213C43.3374 31.515 42.995 31.405 42.6442 31.4076C42.2933 31.4102 41.9525 31.5252 41.6719 31.7358L38.1719 34.3608C36.9389 35.2781 35.443 35.7735 33.9063 35.7735C32.3695 35.7735 30.8736 35.2781 29.6406 34.3608L28.1583 33.249C28.0957 33.2019 28.044 33.142 28.0065 33.0732C27.9691 33.0044 27.9468 32.9284 27.9413 32.8503C27.9358 32.7721 27.947 32.6937 27.9744 32.6203C28.0017 32.547 28.0445 32.4803 28.0998 32.4248L38.8005 21.7239C38.9033 21.6217 39.0422 21.5641 39.1872 21.5636H44.835L44.8427 21.5642L44.8481 21.5636H49.3183L57.0951 36.4567L54.4258 39.5793ZM4.63669 31.2193C4.61416 31.1502 4.6057 31.0774 4.61181 31.005C4.61791 30.9326 4.63846 30.8622 4.67223 30.7979L11.3969 17.9198C11.4436 17.8312 11.5136 17.7571 11.5994 17.7055C11.6852 17.6538 11.7835 17.6266 11.8836 17.6267C11.9678 17.6265 12.0509 17.6461 12.1261 17.6838L17.4601 20.3507L10.2293 34.1989L4.91258 31.5403C4.84751 31.5079 4.78957 31.4629 4.74219 31.4078C4.6948 31.3527 4.65893 31.2887 4.63669 31.2195V31.2193ZM43.4662 50.6995C43.3992 50.7661 43.3162 50.8144 43.2251 50.8396C43.1341 50.8647 43.0381 50.866 42.9464 50.8433L27.0985 46.8815C27.0242 46.8631 26.9547 46.8292 26.8945 46.782L13.0238 35.9358L20.7897 21.0635L34.3364 17.114C34.4618 17.0777 34.596 17.0872 34.7151 17.1408L37.809 18.5408C37.3107 18.7323 36.8582 19.0263 36.4807 19.4038L25.7797 30.1047C25.3919 30.4926 25.0919 30.9592 24.9001 31.4731C24.7083 31.9869 24.6292 32.536 24.6681 33.0831C24.707 33.6302 24.863 34.1626 25.1255 34.6441C25.3881 35.1257 25.751 35.5452 26.1898 35.8743L27.6719 36.9855C29.4739 38.3264 31.6601 39.0505 33.9063 39.0505C36.1524 39.0505 38.3386 38.3264 40.1406 36.9855L42.6713 35.0879L52.1697 41.9957L43.4662 50.6995ZM65.3633 31.5124C65.3411 31.5816 65.3052 31.6456 65.2578 31.7007C65.2104 31.7558 65.1525 31.8008 65.0874 31.8331L59.7707 34.4918L52.5399 20.6438L57.8739 17.9767C58.0022 17.9132 58.1503 17.9023 58.2865 17.9465C58.4228 17.9906 58.5364 18.0862 58.6031 18.2129L65.3278 31.0907C65.3615 31.1551 65.3821 31.2256 65.3882 31.298C65.3943 31.3704 65.3858 31.4433 65.3633 31.5124ZM32.2167 58.6021C32.1645 58.8112 32.0717 59.008 31.9435 59.1812C31.8152 59.3543 31.6541 59.5006 31.4694 59.6115C31.2846 59.7223 31.0798 59.7957 30.8666 59.8274C30.6535 59.8591 30.4362 59.8485 30.2272 59.7962L21.9857 57.7359C21.4007 57.5886 20.8584 57.306 20.4025 56.9109L14.236 51.5507C14.072 51.4098 13.9375 51.2378 13.8401 51.0447C13.7428 50.8516 13.6847 50.6411 13.669 50.4255C13.6533 50.2098 13.6804 49.9932 13.7487 49.788C13.817 49.5828 13.9252 49.3932 14.0671 49.23C14.209 49.0668 14.3817 48.9333 14.5754 48.8371C14.7691 48.7409 14.9798 48.6839 15.1956 48.6695C15.4114 48.655 15.6278 48.6833 15.8326 48.7528C16.0374 48.8224 16.2264 48.9317 16.3888 49.0745L22.5556 54.4347C22.621 54.4914 22.6988 54.532 22.7828 54.5531L31.0229 56.6126C31.445 56.7182 31.8078 56.9871 32.0317 57.3602C32.2556 57.7332 32.3221 58.18 32.2167 58.6021Z" fill="white"/>
</svg>
