<svg width="83" height="50" viewBox="0 0 83 50" fill="none" xmlns="http://www.w3.org/2000/svg">
<g clip-path="url(#clip0_598_93)">
<path fill-rule="evenodd" clip-rule="evenodd" d="M58.1133 50L59.3998 49.9554L60.6419 49.8661L61.884 49.6875L63.1262 49.4643L64.3239 49.1964L65.5217 48.8839L66.6751 48.4821L67.7841 48.0357L68.8931 47.5L69.9578 46.9643L71.0225 46.3839L72.0428 45.7143L73.0187 45L73.9503 44.2857L74.8375 43.4821L75.7248 42.6339L76.5233 41.7857L77.3218 40.8929L78.0315 39.9107L78.7413 38.9732L79.4067 37.9464L79.9834 36.875L80.5601 35.8036L81.0481 34.6875L81.4917 33.5714L81.891 32.4107L82.2015 31.2054L82.512 30L82.6895 28.75L82.8669 27.5L82.9557 26.25L83 24.9554L82.9557 23.6607L82.8669 22.4107L82.6895 21.1607L82.512 19.9107L82.2015 18.7054L81.891 17.5446L81.4917 16.3839L81.0481 15.2679L80.5601 14.1518L79.9834 13.0804L79.4067 12.0536L78.7413 11.0268L78.0315 10.0446L77.3218 9.10714L76.5233 8.16964L75.7248 7.32143L74.8375 6.47321L73.9503 5.71429L73.0187 4.95536L72.0428 4.28571L71.0225 3.61607L69.9578 3.03571L68.8931 2.45536L67.7841 1.96429L66.6751 1.51786L65.5217 1.11607L64.3239 0.803571L63.1262 0.491071L61.884 0.267857L60.6419 0.133929L59.3998 0.0446429L58.1133 0L56.8269 0.0446429L55.5847 0.133929L54.3426 0.267857L53.1005 0.491071L51.9027 0.803571L50.7494 1.11607L49.596 1.51786L48.4426 1.96429L47.3335 2.45536L46.2689 3.03571L45.2486 3.61607L44.2282 4.28571L43.2523 4.95536L42.3207 5.71429L41.4335 6.47321L40.5906 7.32143L39.7478 8.16964L38.9936 9.10714L38.2395 10.0446L37.5297 11.0268L36.9086 12.0536L36.3319 13.0804L35.7552 14.1518L35.2673 15.2679L34.8237 16.3839L34.4244 17.5446L34.1139 18.7054L33.8033 19.9107L33.6259 21.1607L33.4485 22.4107L33.3597 23.6607L33.3154 24.9554L33.3597 26.25L33.4485 27.5L33.6259 28.75L33.8033 30L34.1139 31.2054L34.4244 32.4107L34.8237 33.5714L35.2673 34.6875L35.7552 35.8036L36.3319 36.875L36.9086 37.9464L37.5297 38.9732L38.2395 39.9107L38.9936 40.8929L39.7478 41.7857L40.5906 42.6339L41.4335 43.4821L42.3207 44.2857L43.2523 45L44.2282 45.7143L45.2486 46.3839L46.2689 46.9643L47.3335 47.5L48.4426 48.0357L49.596 48.4821L50.7494 48.8839L51.9027 49.1964L53.1005 49.4643L54.3426 49.6875L55.5847 49.8661L56.8269 49.9554L58.1133 50Z" fill="#FCB331"/>
<path fill-rule="evenodd" clip-rule="evenodd" d="M24.8867 50L26.1732 49.9554L27.4153 49.8661L28.6574 49.6875L29.8995 49.4643L31.0973 49.1964L32.2507 48.8839L33.4041 48.4821L34.5575 48.0357L35.6221 47.5L36.6868 46.9643L37.7515 46.3839L38.7274 45.7143L39.7034 45L40.6793 44.2857L41.5665 43.4821L42.4094 42.6339L43.2523 41.7857L44.0064 40.8929L44.7606 39.9107L45.426 38.9732L46.0914 37.9464L46.6681 36.875L47.2448 35.8036L47.7328 34.6875L48.1764 33.5714L48.5756 32.4107L48.8862 31.2054L49.1523 30L49.3741 28.75L49.5516 27.5L49.6403 26.25L49.6847 24.9554L49.6403 23.6607L49.5516 22.4107L49.3741 21.1607L49.1523 19.9107L48.8862 18.7054L48.5756 17.5446L48.1764 16.3839L47.7328 15.2679L47.2448 14.1518L46.6681 13.0804L46.0914 12.0536L45.426 11.0268L44.7606 10.0446L44.0064 9.10714L43.2523 8.16964L42.4094 7.32143L41.5665 6.47321L40.6793 5.71429L39.7034 4.95536L38.7274 4.28571L37.7515 3.61607L36.6868 3.03571L35.6221 2.45536L34.5575 1.96429L33.4041 1.51786L32.2507 1.11607L31.0973 0.803571L29.8995 0.491071L28.6574 0.267857L27.4153 0.133929L26.1732 0.0446429L24.8867 0L23.6002 0.0446429L22.3581 0.133929L21.116 0.267857L19.8739 0.491071L18.6761 0.803571L17.4784 1.11607L16.325 1.51786L15.2159 1.96429L14.1069 2.45536L12.9979 3.03571L11.9776 3.61607L10.9572 4.28571L9.98129 4.95536L9.04971 5.71429L8.16248 6.47321L7.27525 7.32143L6.47675 8.16964L5.67825 9.10714L4.9241 10.0446L4.25869 11.0268L3.59327 12.0536L3.01657 13.0804L2.43987 14.1518L1.9519 15.2679L1.50828 16.3839L1.10903 17.5446L0.798503 18.7054L0.487974 19.9107L0.266168 21.1607L0.133084 22.4107L0.0443613 23.6607L0 24.9554L0.0443613 26.25L0.133084 27.5L0.266168 28.75L0.487974 30L0.798503 31.2054L1.10903 32.4107L1.50828 33.5714L1.9519 34.6875L2.43987 35.8036L3.01657 36.875L3.59327 37.9464L4.25869 38.9732L4.9241 39.9107L5.67825 40.8929L6.47675 41.7857L7.27525 42.6339L8.16248 43.4821L9.04971 44.2857L9.98129 45L10.9572 45.7143L11.9776 46.3839L12.9979 46.9643L14.1069 47.5L15.2159 48.0357L16.325 48.4821L17.4784 48.8839L18.6761 49.1964L19.8739 49.4643L21.116 49.6875L22.3581 49.8661L23.6002 49.9554L24.8867 50Z" fill="#ED1C2E"/>
<path fill-rule="evenodd" clip-rule="evenodd" d="M38.5944 9.59822H51.7697V8.21429H39.7478L38.5944 9.59822Z" fill="#FCB331"/>
<path fill-rule="evenodd" clip-rule="evenodd" d="M36.5981 12.5893H51.7696V11.25H37.3966L36.5981 12.5893Z" fill="#FCB331"/>
<path fill-rule="evenodd" clip-rule="evenodd" d="M35.1342 15.625H51.7696V14.241H35.7109L35.1342 15.625Z" fill="#FCB331"/>
<path fill-rule="evenodd" clip-rule="evenodd" d="M34.1138 18.6161H51.7696V17.2768H34.5574L34.1138 18.6161Z" fill="#FCB331"/>
<path fill-rule="evenodd" clip-rule="evenodd" d="M34.6905 33.2143H51.814V31.875H34.2913L34.6905 33.2143Z" fill="#FCB331"/>
<path fill-rule="evenodd" clip-rule="evenodd" d="M35.977 36.25H51.814V34.8661H35.356L35.977 36.25Z" fill="#FCB331"/>
<path fill-rule="evenodd" clip-rule="evenodd" d="M37.7514 39.2411H51.814V37.9018H36.9086L37.7514 39.2411Z" fill="#FCB331"/>
<path fill-rule="evenodd" clip-rule="evenodd" d="M40.1914 42.2768H51.814V40.8929H39.038L40.1914 42.2768Z" fill="#FCB331"/>
<path fill-rule="evenodd" clip-rule="evenodd" d="M33.5372 21.6518H51.7697V20.2678H33.8033L33.5372 21.6518Z" fill="#FCB331"/>
<path fill-rule="evenodd" clip-rule="evenodd" d="M44.6718 30.2232H51.6365V28.8393H44.8936L44.6718 30.2232Z" fill="#FCB331"/>
<path fill-rule="evenodd" clip-rule="evenodd" d="M45.2042 27.1875H51.6366V25.8482H45.4703L45.2042 27.1875Z" fill="#FCB331"/>
<path fill-rule="evenodd" clip-rule="evenodd" d="M33.0492 25.8482H34.868V27.1875H33.1379L33.0492 25.8482Z" fill="#FCB331"/>
<path fill-rule="evenodd" clip-rule="evenodd" d="M29.6777 24.1964H29.589L29.4559 24.1518H29.3672H29.2341L29.1454 24.1072H29.0123L28.9236 24.0625H28.7905H28.7018L28.5687 24.0179H28.3912H28.2582H28.0807H27.8589L27.6371 24.0625H27.4153L27.2379 24.1072H27.1048L26.9273 24.1518L26.8386 24.1964L26.7055 24.2857L26.5724 24.3304L26.5281 24.4197L26.4394 24.5089L26.395 24.5982L26.3506 24.6875L26.3063 24.7768V24.9107L26.3506 25L26.395 25.0893L26.4394 25.2232L26.5281 25.3125L26.7055 25.4911L26.883 25.625L27.1491 25.7143L27.3709 25.8036L27.6371 25.8929L27.9476 25.9822L28.2138 26.1161L28.48 26.2054L28.7461 26.3393L28.9679 26.5179L29.1898 26.7411L29.3672 27.0089L29.5003 27.3214L29.5446 27.6786L29.589 28.1697L29.5446 28.7054L29.5003 29.0625L29.4116 29.4197L29.2785 29.7322L29.101 30.0447L28.9236 30.2679L28.7018 30.4911L28.48 30.6697L28.2138 30.8036L27.9476 30.9375L27.6371 31.0714L27.3709 31.1607L27.0604 31.2054L26.7942 31.25L26.5281 31.2947H26.2619H25.9957H25.6408H25.286H24.9754H24.7093H24.4431L24.2213 31.25H24.0438H23.822L23.689 31.2054L23.5115 31.1607H23.3341L23.201 31.1161L23.0679 31.0714L22.9348 31.0268L22.8017 30.9822L22.6686 30.9375L23.0235 29.0625H23.1123L23.201 29.1072L23.3341 29.1518H23.4671L23.6002 29.1964L23.7777 29.2411L23.9551 29.2857L24.1769 29.3304H24.3544L24.5762 29.375L24.798 29.4197H25.0642L25.286 29.4643H25.5521H25.7739H26.0401L26.2619 29.375L26.4394 29.3304L26.6168 29.2411L26.7055 29.1072L26.7942 28.9732L26.883 28.8393L26.9273 28.7054L26.9717 28.6161V28.3482L26.883 28.125L26.7499 27.9911L26.5281 27.8125L26.3063 27.7232L25.9957 27.5893L25.6852 27.4554L25.3303 27.3214L25.0198 27.1875L24.7093 27.0089L24.3987 26.7857L24.1326 26.5179L23.9108 26.2054L23.7777 25.8036L23.689 25.3572V24.8214L23.7333 24.5089L23.822 24.1964L23.8664 23.8839L23.9995 23.6161L24.1326 23.3929L24.2656 23.1697L24.4431 22.9464L24.6649 22.7679L24.8867 22.5893L25.1529 22.4554L25.4634 22.3214L25.8183 22.2322L26.1732 22.1875L26.5724 22.0982L27.0604 22.0536H27.5484H27.8589H28.1251L28.3912 22.0982H28.6131H28.8349L29.0123 22.1429H29.1898H29.3672L29.5003 22.1875H29.589L29.7221 22.2322H29.8108H29.8995L29.9883 22.2768H30.0326H30.1213L29.6777 24.1964Z" fill="white"/>
<path d="M29.6777 24.1964H29.589L29.4559 24.1518H29.3672H29.2341L29.1454 24.1072H29.0123L28.9236 24.0625H28.7905H28.7018L28.5687 24.0179H28.3912H28.2582H28.0807H27.8589L27.6371 24.0625H27.4153L27.2379 24.1072H27.1048L26.9273 24.1518L26.8386 24.1964L26.7055 24.2857L26.5724 24.3304L26.5281 24.4197L26.4394 24.5089L26.395 24.5982L26.3506 24.6875L26.3063 24.7768V24.9107L26.3506 25L26.395 25.0893L26.4394 25.2232L26.5281 25.3125L26.7055 25.4911L26.883 25.625L27.1491 25.7143L27.3709 25.8036L27.6371 25.8929L27.9476 25.9822L28.2138 26.1161L28.48 26.2054L28.7461 26.3393L28.9679 26.5179L29.1898 26.7411L29.3672 27.0089L29.5003 27.3214L29.5446 27.6786L29.589 28.1697L29.5446 28.7054L29.5003 29.0625L29.4116 29.4197L29.2785 29.7322L29.101 30.0447L28.9236 30.2679L28.7018 30.4911L28.48 30.6697L28.2138 30.8036L27.9476 30.9375L27.6371 31.0714L27.3709 31.1607L27.0604 31.2054L26.7942 31.25L26.5281 31.2947H26.2619H25.9957H25.6408H25.286H24.9754H24.7093H24.4431L24.2213 31.25H24.0438H23.822L23.689 31.2054L23.5115 31.1607H23.3341L23.201 31.1161L23.0679 31.0714L22.9348 31.0268L22.8017 30.9822L22.6686 30.9375L23.0235 29.0625H23.1123L23.201 29.1072L23.3341 29.1518H23.4671L23.6002 29.1964L23.7777 29.2411L23.9551 29.2857L24.1769 29.3304H24.3544L24.5762 29.375L24.798 29.4197H25.0642L25.286 29.4643H25.5521H25.7739H26.0401L26.2619 29.375L26.4394 29.3304L26.6168 29.2411L26.7055 29.1072L26.7942 28.9732L26.883 28.8393L26.9273 28.7054L26.9717 28.6161V28.3482L26.883 28.125L26.7499 27.9911L26.5281 27.8125L26.3063 27.7232L25.9957 27.5893L25.6852 27.4554L25.3303 27.3214L25.0198 27.1875L24.7093 27.0089L24.3987 26.7857L24.1326 26.5179L23.9108 26.2054L23.7777 25.8036L23.689 25.3572V24.8214L23.7333 24.5089L23.822 24.1964L23.8664 23.8839L23.9995 23.6161L24.1326 23.3929L24.2656 23.1697L24.4431 22.9464L24.6649 22.7679L24.8867 22.5893L25.1529 22.4554L25.4634 22.3214L25.8183 22.2322L26.1732 22.1875L26.5724 22.0982L27.0604 22.0536H27.5484H27.8589H28.1251L28.3912 22.0982H28.6131H28.8349L29.0123 22.1429H29.1898H29.3672L29.5003 22.1875H29.589L29.7221 22.2322H29.8108H29.8995L29.9883 22.2768H30.0326H30.1213L29.6777 24.1964Z" stroke="white" stroke-width="0.216" stroke-miterlimit="2.6131"/>
<path fill-rule="evenodd" clip-rule="evenodd" d="M31.674 20.2232H33.9807L33.6702 22.2321H35.0454L34.7349 24.1518L33.271 24.1071L32.4725 28.7946V28.9732L32.5168 29.1071L32.6055 29.2411L32.6943 29.3303L32.8717 29.375L33.0048 29.4196L33.1822 29.4643H33.4041H33.5815H33.7589L33.892 29.4196H34.0251L34.1582 29.375L34.2026 29.3303H34.2913L33.9807 30.8928L33.9364 30.9375L33.892 30.9821H33.8033L33.7589 31.0268L33.7146 31.0714H33.6259L33.5815 31.1161H33.4928L33.4041 31.1607H33.3153L33.2266 31.2053H33.1379H33.0048L32.8717 31.25H32.7386H32.6055H31.9845H31.6296L31.3634 31.2053L31.0529 31.1607L30.8311 31.1161L30.6537 31.0268L30.4762 30.9375L30.3431 30.8482L30.2544 30.7143L30.1657 30.625L30.1213 30.4911L30.077 30.3125L30.0326 30.1786V30V29.8214V29.5982L30.077 29.4196L31.674 20.2232Z" fill="white"/>
<path d="M31.674 20.2232H33.9807L33.6702 22.2321H35.0454L34.7349 24.1518L33.271 24.1071L32.4725 28.7946V28.9732L32.5168 29.1071L32.6055 29.2411L32.6943 29.3303L32.8717 29.375L33.0048 29.4196L33.1822 29.4643H33.4041H33.5815H33.7589L33.892 29.4196H34.0251L34.1582 29.375L34.2026 29.3303H34.2913L33.9807 30.8928L33.9364 30.9375L33.892 30.9821H33.8033L33.7589 31.0268L33.7146 31.0714H33.6259L33.5815 31.1161H33.4928L33.4041 31.1607H33.3153L33.2266 31.2053H33.1379H33.0048L32.8717 31.25H32.7386H32.6055H31.9845H31.6296L31.3634 31.2053L31.0529 31.1607L30.8311 31.1161L30.6537 31.0268L30.4762 30.9375L30.3431 30.8482L30.2544 30.7143L30.1657 30.625L30.1213 30.4911L30.077 30.3125L30.0326 30.1786V30V29.8214V29.5982L30.077 29.4196L31.674 20.2232Z" stroke="white" stroke-width="0.216" stroke-miterlimit="2.6131"/>
<path fill-rule="evenodd" clip-rule="evenodd" d="M36.9086 27.3214L36.8643 27.4554V27.6339L36.9086 27.7679V27.9464L36.9973 28.0804L37.0417 28.2589L37.1304 28.3929L37.2192 28.5714L37.3522 28.7054L37.4853 28.8393L37.6184 28.9732L37.7515 29.0625L37.9289 29.1518L38.1064 29.2411L38.2395 29.2857L38.4169 29.3304H38.6387L38.8605 29.375L39.0823 29.4197H39.3041H39.4816H39.7477H39.9252H40.1914L40.4132 29.375L40.635 29.3304L40.8568 29.2857L41.0786 29.1964L41.3004 29.1072L41.5666 29.0179L41.7884 28.8839L42.0545 28.7054L41.6996 30.8036L41.5666 30.8482L41.4335 30.9375L41.3004 30.9822L41.1673 31.0268L41.0342 31.0714L40.9011 31.1161L40.7681 31.1607H40.635L40.5019 31.2054H40.3244L40.147 31.25H39.9696H39.7477H39.5259H39.2598H38.9936H38.55L38.1507 31.2054L37.7071 31.1607L37.3079 31.0714L36.9086 30.9375L36.5094 30.7589L36.1101 30.5804L35.7552 30.3125L35.4447 30.0447L35.1785 29.6875L34.9124 29.2857L34.7349 28.8393L34.5575 28.3482L34.4688 27.7679V27.1875L34.5131 26.4732V26.2054L34.6018 25.8929L34.6462 25.5804L34.7349 25.2232L34.868 24.8661L35.0011 24.4643L35.2229 24.1072L35.4447 23.75L35.7109 23.4375L36.0214 23.0804L36.4206 22.8125L36.8199 22.5447L37.3079 22.3661L37.8402 22.1875L38.4613 22.0982L39.1267 22.0536H39.4816L39.7921 22.0982L40.147 22.1875L40.5019 22.2322L40.8568 22.3661L41.1673 22.5447L41.4778 22.7232L41.744 22.9464L42.0102 23.2589L42.1876 23.5714L42.3651 23.9732L42.4982 24.4197L42.5425 24.9107V25.4911L42.4982 26.1607L42.3651 26.875L42.3207 27.3661H36.2432L36.5981 25.7143H40.2801V25.4911V25.3125V25.0893L40.2357 24.9554L40.1914 24.7768L40.1026 24.6429L40.0583 24.5089L39.9696 24.375L39.8365 24.2857L39.7477 24.1964L39.6147 24.1518L39.4816 24.0625L39.3485 24.0179L39.2154 23.9732H39.0823L38.9492 23.9286H38.7718L38.6387 23.9732L38.4613 24.0179L38.3282 24.0625L38.1951 24.1072L38.062 24.1964L37.9289 24.2857L37.8402 24.375L37.7071 24.5089L37.6184 24.6429L37.5297 24.7768L37.441 24.9107L37.3966 25.0447L37.3079 25.2232L37.2635 25.4018L37.2192 25.5804L36.9086 27.3214Z" fill="white"/>
<path d="M36.9086 27.3214L36.8643 27.4554V27.6339L36.9086 27.7679V27.9464L36.9973 28.0804L37.0417 28.2589L37.1304 28.3929L37.2192 28.5714L37.3522 28.7054L37.4853 28.8393L37.6184 28.9732L37.7515 29.0625L37.9289 29.1518L38.1064 29.2411L38.2395 29.2857L38.4169 29.3304H38.6387L38.8605 29.375L39.0823 29.4197H39.3041H39.4816H39.7477H39.9252H40.1914L40.4132 29.375L40.635 29.3304L40.8568 29.2857L41.0786 29.1964L41.3004 29.1072L41.5666 29.0179L41.7884 28.8839L42.0545 28.7054L41.6996 30.8036L41.5666 30.8482L41.4335 30.9375L41.3004 30.9822L41.1673 31.0268L41.0342 31.0714L40.9011 31.1161L40.7681 31.1607H40.635L40.5019 31.2054H40.3244L40.147 31.25H39.9696H39.7477H39.5259H39.2598H38.9936H38.55L38.1507 31.2054L37.7071 31.1607L37.3079 31.0714L36.9086 30.9375L36.5094 30.7589L36.1101 30.5804L35.7552 30.3125L35.4447 30.0447L35.1785 29.6875L34.9124 29.2857L34.7349 28.8393L34.5575 28.3482L34.4688 27.7679V27.1875L34.5131 26.4732V26.2054L34.6018 25.8929L34.6462 25.5804L34.7349 25.2232L34.868 24.8661L35.0011 24.4643L35.2229 24.1072L35.4447 23.75L35.7109 23.4375L36.0214 23.0804L36.4206 22.8125L36.8199 22.5447L37.3079 22.3661L37.8402 22.1875L38.4613 22.0982L39.1267 22.0536H39.4816L39.7921 22.0982L40.147 22.1875L40.5019 22.2322L40.8568 22.3661L41.1673 22.5447L41.4778 22.7232L41.744 22.9464L42.0102 23.2589L42.1876 23.5714L42.3651 23.9732L42.4982 24.4197L42.5425 24.9107V25.4911L42.4982 26.1607L42.3651 26.875L42.3207 27.3661H36.2432L36.5981 25.7143H40.2801V25.4911V25.3125V25.0893L40.2357 24.9554L40.1914 24.7768L40.1026 24.6429L40.0583 24.5089L39.9696 24.375L39.8365 24.2857L39.7477 24.1964L39.6147 24.1518L39.4816 24.0625L39.3485 24.0179L39.2154 23.9732H39.0823L38.9492 23.9286H38.7718L38.6387 23.9732L38.4613 24.0179L38.3282 24.0625L38.1951 24.1072L38.062 24.1964L37.9289 24.2857L37.8402 24.375L37.7071 24.5089L37.6184 24.6429L37.5297 24.7768L37.441 24.9107L37.3966 25.0447L37.3079 25.2232L37.2635 25.4018L37.2192 25.5804L36.9086 27.3214Z" stroke="white" stroke-width="0.216" stroke-miterlimit="2.6131"/>
<path fill-rule="evenodd" clip-rule="evenodd" d="M56.8712 22.7678L56.7825 22.6786L56.6494 22.6339L56.5607 22.5893L56.4276 22.5L56.2945 22.4553L56.1614 22.4107L56.0283 22.3661L55.8509 22.3214L55.7178 22.2768L55.5403 22.2321L55.3629 22.1875H55.1855H55.008L54.8306 22.1428H54.6088H54.387H54.2095L53.9877 22.1875H53.7659L53.4997 22.2321L53.2779 22.3214L53.0561 22.4107L52.7899 22.5L52.5681 22.6786L52.3463 22.8571L52.1245 23.0803L51.9027 23.3482L51.7253 23.6607L51.5478 24.0178L51.3704 24.4643L51.1929 24.9107L51.0599 25.4464L51.0155 25.7589L50.9711 26.0714V26.3393V26.6518L51.0155 26.9196L51.0599 27.1875L51.1486 27.4553L51.2373 27.6786L51.3704 27.9464L51.5035 28.125L51.6809 28.3482L51.8584 28.5268L52.1245 28.6607L52.3463 28.7946L52.6569 28.8839L52.9674 28.9732L53.0561 29.0178H53.1892L53.3666 29.0625H53.4997H53.7215H53.899H54.1208H54.2982L54.52 29.0178L54.7418 28.9732L54.9637 28.9286L55.1855 28.8839L55.3629 28.7946L55.5847 28.6607L55.7622 28.5268L55.8952 28.3928L55.5403 30.625L55.496 30.6696L55.4516 30.7143L55.3629 30.8036L55.2742 30.8482L55.1855 30.8928L55.0967 30.9821L54.9637 31.0268L54.7862 31.0714L54.6088 31.1161L54.387 31.1607L54.1208 31.2053L53.8546 31.25H53.4997H53.1448H52.7012H52.2576L51.8584 31.2053L51.4591 31.1161L51.1042 30.9821L50.705 30.8036L50.3501 30.625L49.9952 30.3571L49.6403 30.0446L49.3298 29.7321L49.0636 29.3303L48.8418 28.9286L48.62 28.4375L48.4869 27.9464L48.3538 27.3661V26.7857V26.1161L48.4425 25.4018L48.5313 25.0446L48.5756 24.7321L48.6643 24.4196L48.7531 24.1071L48.8418 23.7946L48.9749 23.4821L49.0636 23.2143L49.1967 22.9464L49.3298 22.6786L49.4185 22.4553L49.5959 22.2321L49.729 22.0089L49.8621 21.7857L50.0396 21.5625L50.217 21.3839L50.3944 21.2053L50.5719 21.0714L50.7937 20.8928L50.9711 20.7589L51.1929 20.625L51.4148 20.4911L51.6366 20.3571L51.8584 20.2678L52.1245 20.1786L52.3907 20.0893L52.6569 20.0446L52.923 19.9553L53.1892 19.9107L53.4997 19.8661H53.7659L54.0764 19.8214H54.387H54.6531L54.9193 19.8661H55.1855L55.4516 19.9107L55.6734 19.9553L55.8952 20L56.117 20.0446L56.2945 20.0893L56.5163 20.1339L56.6494 20.1786L56.8268 20.2232L56.9599 20.2678L57.093 20.3125L57.1817 20.3571L57.2704 20.4018H57.3148L56.8712 22.7678Z" fill="white"/>
<path d="M56.8712 22.7678L56.7825 22.6786L56.6494 22.6339L56.5607 22.5893L56.4276 22.5L56.2945 22.4553L56.1614 22.4107L56.0283 22.3661L55.8509 22.3214L55.7178 22.2768L55.5403 22.2321L55.3629 22.1875H55.1855H55.008L54.8306 22.1428H54.6088H54.387H54.2095L53.9877 22.1875H53.7659L53.4997 22.2321L53.2779 22.3214L53.0561 22.4107L52.7899 22.5L52.5681 22.6786L52.3463 22.8571L52.1245 23.0803L51.9027 23.3482L51.7253 23.6607L51.5478 24.0178L51.3704 24.4643L51.1929 24.9107L51.0599 25.4464L51.0155 25.7589L50.9711 26.0714V26.3393V26.6518L51.0155 26.9196L51.0599 27.1875L51.1486 27.4553L51.2373 27.6786L51.3704 27.9464L51.5035 28.125L51.6809 28.3482L51.8584 28.5268L52.1245 28.6607L52.3463 28.7946L52.6569 28.8839L52.9674 28.9732L53.0561 29.0178H53.1892L53.3666 29.0625H53.4997H53.7215H53.899H54.1208H54.2982L54.52 29.0178L54.7418 28.9732L54.9637 28.9286L55.1855 28.8839L55.3629 28.7946L55.5847 28.6607L55.7622 28.5268L55.8952 28.3928L55.5403 30.625L55.496 30.6696L55.4516 30.7143L55.3629 30.8036L55.2742 30.8482L55.1855 30.8928L55.0967 30.9821L54.9637 31.0268L54.7862 31.0714L54.6088 31.1161L54.387 31.1607L54.1208 31.2053L53.8546 31.25H53.4997H53.1448H52.7012H52.2576L51.8584 31.2053L51.4591 31.1161L51.1042 30.9821L50.705 30.8036L50.3501 30.625L49.9952 30.3571L49.6403 30.0446L49.3298 29.7321L49.0636 29.3303L48.8418 28.9286L48.62 28.4375L48.4869 27.9464L48.3538 27.3661V26.7857V26.1161L48.4425 25.4018L48.5313 25.0446L48.5756 24.7321L48.6643 24.4196L48.7531 24.1071L48.8418 23.7946L48.9749 23.4821L49.0636 23.2143L49.1967 22.9464L49.3298 22.6786L49.4185 22.4553L49.5959 22.2321L49.729 22.0089L49.8621 21.7857L50.0396 21.5625L50.217 21.3839L50.3944 21.2053L50.5719 21.0714L50.7937 20.8928L50.9711 20.7589L51.1929 20.625L51.4148 20.4911L51.6366 20.3571L51.8584 20.2678L52.1245 20.1786L52.3907 20.0893L52.6569 20.0446L52.923 19.9553L53.1892 19.9107L53.4997 19.8661H53.7659L54.0764 19.8214H54.387H54.6531L54.9193 19.8661H55.1855L55.4516 19.9107L55.6734 19.9553L55.8952 20L56.117 20.0446L56.2945 20.0893L56.5163 20.1339L56.6494 20.1786L56.8268 20.2232L56.9599 20.2678L57.093 20.3125L57.1817 20.3571L57.2704 20.4018H57.3148L56.8712 22.7678Z" stroke="white" stroke-width="0.216" stroke-miterlimit="2.6131"/>
<path fill-rule="evenodd" clip-rule="evenodd" d="M77.4992 31.25H75.1924L75.3698 30.3571V30.2678L75.2367 30.4018L75.1036 30.5803L74.9262 30.7143L74.7931 30.8036L74.66 30.9375L74.4826 31.0268L74.3495 31.1161L74.1721 31.1607L74.039 31.25L73.8615 31.2946L73.6841 31.3393H73.551L73.3736 31.3839H73.1961H73.0187H72.8856H72.442L72.0427 31.25L71.6878 31.1161L71.3329 30.9375L71.0224 30.6696L70.7562 30.4018L70.5344 30.0893L70.3126 29.7321L70.1795 29.375L70.0465 28.9732L69.9134 28.5268L69.869 28.125L69.8246 27.6786L69.869 27.2321V26.8303L69.9577 26.3839L70.0908 25.8928L70.2239 25.4018L70.4013 25L70.6232 24.5982L70.845 24.1964L71.1111 23.8839L71.3773 23.5714L71.6435 23.3036L71.9096 23.0357L72.2202 22.8125L72.5751 22.6339L72.8856 22.5L73.1961 22.3661L73.551 22.3214L73.8615 22.2768L74.2164 22.2321H74.4826L74.7044 22.2768L74.9262 22.3214L75.1036 22.3661L75.3255 22.4553L75.4585 22.5L75.636 22.6339L75.8134 22.7232L75.9465 22.8125L76.0352 22.9018L76.1683 23.0357L76.257 23.125L76.3458 23.2589L76.4345 23.3482L76.4788 23.4375L76.5232 23.5714L77.1443 20.2232H79.4067L77.4992 31.25Z" fill="white"/>
<path d="M77.4992 31.25H75.1924L75.3698 30.3571V30.2678L75.2367 30.4018L75.1036 30.5803L74.9262 30.7143L74.7931 30.8036L74.66 30.9375L74.4826 31.0268L74.3495 31.1161L74.1721 31.1607L74.039 31.25L73.8615 31.2946L73.6841 31.3393H73.551L73.3736 31.3839H73.1961H73.0187H72.8856H72.442L72.0427 31.25L71.6878 31.1161L71.3329 30.9375L71.0224 30.6696L70.7562 30.4018L70.5344 30.0893L70.3126 29.7321L70.1795 29.375L70.0465 28.9732L69.9134 28.5268L69.869 28.125L69.8246 27.6786L69.869 27.2321V26.8303L69.9577 26.3839L70.0908 25.8928L70.2239 25.4018L70.4013 25L70.6232 24.5982L70.845 24.1964L71.1111 23.8839L71.3773 23.5714L71.6435 23.3036L71.9096 23.0357L72.2202 22.8125L72.5751 22.6339L72.8856 22.5L73.1961 22.3661L73.551 22.3214L73.8615 22.2768L74.2164 22.2321H74.4826L74.7044 22.2768L74.9262 22.3214L75.1036 22.3661L75.3255 22.4553L75.4585 22.5L75.636 22.6339L75.8134 22.7232L75.9465 22.8125L76.0352 22.9018L76.1683 23.0357L76.257 23.125L76.3458 23.2589L76.4345 23.3482L76.4788 23.4375L76.5232 23.5714L77.1443 20.2232H79.4067L77.4992 31.25Z" stroke="white" stroke-width="0.216" stroke-miterlimit="2.6131"/>
<path fill-rule="evenodd" clip-rule="evenodd" d="M73.7285 29.2411L73.9503 29.1964L74.1721 29.1518L74.3939 29.1071L74.5714 29.0178L74.7488 28.9286L74.9263 28.7946L75.0594 28.6607L75.1924 28.4821L75.3255 28.3036L75.4586 28.125L75.5473 27.9464L75.6361 27.7232L75.7248 27.5446L75.8135 27.3214L75.8579 27.0982L75.9022 26.875L75.9466 26.6071L75.9909 26.3839V26.1607L75.9466 25.8928V25.6696L75.9022 25.4911L75.8579 25.2678L75.7691 25.0893L75.6804 24.9107L75.5917 24.7321L75.503 24.5982L75.3699 24.5089L75.2368 24.4196L75.0594 24.3303L74.9263 24.2857H74.7488H74.527L74.3052 24.3303L74.0834 24.375L73.906 24.4643L73.7285 24.5982L73.5954 24.7321L73.418 24.8661L73.2849 25.0446L73.1518 25.2232L73.0631 25.4018L72.93 25.625L72.8413 25.8036L72.7526 26.0714L72.7082 26.2946L72.6195 26.5178L72.5751 26.7857L72.5308 27.1428L72.5751 27.5446L72.6195 27.9464L72.7082 28.3482L72.8857 28.7053L73.1075 28.9732L73.3736 29.1518L73.7285 29.2411Z" fill="#FCB331"/>
<path fill-rule="evenodd" clip-rule="evenodd" d="M22.2694 29.4197L21.9145 31.25H19.8295L19.8739 30.9375L19.9182 30.625L19.9626 30.3572L20.0069 30.2679L19.8739 30.4018L19.7408 30.5357L19.5633 30.6697L19.3859 30.759L19.2084 30.8929L18.9866 30.9822L18.7648 31.0715L18.543 31.1607L18.3212 31.25L18.055 31.2947L17.8332 31.3393L17.5671 31.384L17.3453 31.4286H17.0791L16.8573 31.384L16.6355 31.3393L16.325 31.2947L16.0588 31.2054L15.837 31.0715L15.6152 30.9822L15.4377 30.8036L15.2603 30.6697L15.1272 30.4911L14.9941 30.3572L14.9054 30.1786L14.8167 30L14.7723 29.7768L14.7279 29.5982L14.6836 29.4197L14.6392 29.2411V29.0179V28.8393L14.6836 28.5268L14.7279 28.2143L14.8167 27.9018L14.9054 27.634L15.0385 27.3661L15.1716 27.0982L15.349 26.875L15.5708 26.6518L15.7926 26.4732L16.0144 26.2947L16.2362 26.1161L16.5024 25.9822L16.7686 25.8929L17.0347 25.8036L17.3453 25.7143L17.6114 25.6697H17.6558H17.7002H17.7445L17.8332 25.625H17.922H18.055L18.1881 25.5804H18.3212H18.4543L18.5874 25.5357H18.7648H18.8979L19.031 25.4911H19.1641H19.2528H19.3415H19.5633H19.7408H19.9182H20.14L20.2731 25.5357H20.4062H20.4949L20.5393 25.4911L20.5836 25.3125L20.628 25.134V25L20.5836 24.8215L20.5393 24.6429L20.4062 24.4643L20.2731 24.375L20.14 24.2411L19.9626 24.1518L19.7408 24.1072H19.519H19.2972H19.031H18.7648H18.4987H18.2325L17.9663 24.1518H17.7002L17.434 24.1965L17.2122 24.2411L16.946 24.2857L16.7242 24.3304L16.5468 24.375L16.325 24.4197L16.1919 24.4643L16.0588 24.509L15.9701 24.5536L16.5911 22.5447L16.7686 22.4554L16.946 22.4107L17.1678 22.3215L17.3453 22.2768L17.5671 22.2322H17.7889L17.9663 22.1875H18.2325L18.4543 22.1429H18.6761H18.9423H19.2084H19.4746H19.7408H20.0513H20.3175L20.5836 22.1875H20.8054L21.0716 22.2768L21.3378 22.3215L21.6039 22.4554L21.8701 22.5447L22.0919 22.7232L22.3581 22.8572L22.5355 23.0357L22.7573 23.259L22.8904 23.4822L23.0235 23.75L23.1122 24.0179L23.1566 24.2857V24.5982L23.1122 24.9554L22.2694 29.4197Z" fill="white"/>
<path d="M22.2694 29.4197L21.9145 31.25H19.8295L19.8739 30.9375L19.9182 30.625L19.9626 30.3572L20.0069 30.2679L19.8739 30.4018L19.7408 30.5357L19.5633 30.6697L19.3859 30.759L19.2084 30.8929L18.9866 30.9822L18.7648 31.0715L18.543 31.1607L18.3212 31.25L18.055 31.2947L17.8332 31.3393L17.5671 31.384L17.3453 31.4286H17.0791L16.8573 31.384L16.6355 31.3393L16.325 31.2947L16.0588 31.2054L15.837 31.0715L15.6152 30.9822L15.4377 30.8036L15.2603 30.6697L15.1272 30.4911L14.9941 30.3572L14.9054 30.1786L14.8167 30L14.7723 29.7768L14.7279 29.5982L14.6836 29.4197L14.6392 29.2411V29.0179V28.8393L14.6836 28.5268L14.7279 28.2143L14.8167 27.9018L14.9054 27.634L15.0385 27.3661L15.1716 27.0982L15.349 26.875L15.5708 26.6518L15.7926 26.4732L16.0144 26.2947L16.2362 26.1161L16.5024 25.9822L16.7686 25.8929L17.0347 25.8036L17.3453 25.7143L17.6114 25.6697H17.6558H17.7002H17.7445L17.8332 25.625H17.922H18.055L18.1881 25.5804H18.3212H18.4543L18.5874 25.5357H18.7648H18.8979L19.031 25.4911H19.1641H19.2528H19.3415H19.5633H19.7408H19.9182H20.14L20.2731 25.5357H20.4062H20.4949L20.5393 25.4911L20.5836 25.3125L20.628 25.134V25L20.5836 24.8215L20.5393 24.6429L20.4062 24.4643L20.2731 24.375L20.14 24.2411L19.9626 24.1518L19.7408 24.1072H19.519H19.2972H19.031H18.7648H18.4987H18.2325L17.9663 24.1518H17.7002L17.434 24.1965L17.2122 24.2411L16.946 24.2857L16.7242 24.3304L16.5468 24.375L16.325 24.4197L16.1919 24.4643L16.0588 24.509L15.9701 24.5536L16.5911 22.5447L16.7686 22.4554L16.946 22.4107L17.1678 22.3215L17.3453 22.2768L17.5671 22.2322H17.7889L17.9663 22.1875H18.2325L18.4543 22.1429H18.6761H18.9423H19.2084H19.4746H19.7408H20.0513H20.3175L20.5836 22.1875H20.8054L21.0716 22.2768L21.3378 22.3215L21.6039 22.4554L21.8701 22.5447L22.0919 22.7232L22.3581 22.8572L22.5355 23.0357L22.7573 23.259L22.8904 23.4822L23.0235 23.75L23.1122 24.0179L23.1566 24.2857V24.5982L23.1122 24.9554L22.2694 29.4197Z" stroke="white" stroke-width="0.216" stroke-miterlimit="2.6131"/>
<path fill-rule="evenodd" clip-rule="evenodd" d="M20.2287 27.1875V27.1429V27.0982H20.14L20.0957 27.0536H19.9626H19.8738H19.7408H19.6077H19.4746H19.3415L19.2084 27.0982H19.0753L18.9423 27.1429H18.8535L18.7205 27.1875H18.6317L18.5874 27.2322H18.4986L18.4099 27.2768L18.3212 27.3214L18.2325 27.3661L18.0994 27.4107L18.0107 27.5L17.8776 27.5447L17.7889 27.6339L17.6558 27.7232L17.5671 27.8125L17.4783 27.9464L17.3896 28.0357L17.3453 28.1697L17.2565 28.3036V28.4375V28.7054L17.3009 28.9286L17.3896 29.1072L17.4783 29.2411L17.6114 29.3304L17.7445 29.375H17.8776L18.0107 29.4197L18.2768 29.375H18.4986L18.7205 29.3304L18.8979 29.2857L19.0753 29.2411L19.2084 29.1518L19.3859 29.0625L19.4746 28.9732L19.6077 28.8839L19.6964 28.7947L19.7851 28.7054L19.8738 28.6161L19.9182 28.4822L19.9626 28.3929L20.0069 28.3036L20.0513 28.2143L20.0957 27.9464L20.14 27.6786L20.2287 27.4107V27.1875Z" fill="#ED1C2E"/>
<path fill-rule="evenodd" clip-rule="evenodd" d="M4.65792 31.25H2.35114L4.25867 20.2232H8.20683L8.60608 26.7857L11.3565 20.2232H15.4821L13.5302 31.25H11.2678L12.6873 22.9911H12.5986L9.18278 31.25H6.60982V30.9375L6.56546 30L6.47674 28.7053L6.38801 27.1875L6.29929 25.6696L6.25493 24.375L6.16621 23.3928V22.9911H6.12185H6.07748H6.03312L4.65792 31.25Z" fill="white"/>
<path d="M4.65792 31.25H2.35114L4.25867 20.2232H8.20683L8.60608 26.7857L11.3565 20.2232H15.4821L13.5302 31.25H11.2678L12.6873 22.9911H12.5986L9.18278 31.25H6.60982V30.9375L6.56546 30L6.47674 28.7053L6.38801 27.1875L6.29929 25.6696L6.25493 24.375L6.16621 23.3928V22.9911H6.12185H6.07748H6.03312L4.65792 31.25Z" stroke="white" stroke-width="0.216" stroke-miterlimit="2.6131"/>
<path fill-rule="evenodd" clip-rule="evenodd" d="M63.8359 29.4197L63.5254 31.25H61.396L61.4404 30.9375V30.625V30.4018V30.3125L61.3517 30.4018L61.2186 30.5357L61.0411 30.6697L60.9081 30.8036L60.7306 30.8929L60.5088 30.9822L60.287 31.1161L60.1096 31.1607L59.8877 31.25L59.6216 31.2947L59.3998 31.3393L59.178 31.384L58.9118 31.4286H58.69L58.4682 31.384L58.2464 31.3393L57.9359 31.2947L57.6697 31.2054L57.4479 31.0715L57.2261 30.9822L57.0486 30.8036L56.8712 30.6697L56.7381 30.4911L56.605 30.3572L56.5163 30.1786L56.4276 30L56.3832 29.7768L56.3388 29.5982L56.2945 29.4197V29.2411L56.2501 29.0179V28.8393L56.2945 28.5268L56.3388 28.2143L56.3832 27.9018L56.5163 27.634L56.6494 27.3661L56.7825 27.0982L56.9599 26.875L57.1817 26.6518L57.4035 26.4732L57.6253 26.2947L57.8471 26.1161L58.1133 25.9822L58.3795 25.8929L58.6456 25.8036L58.9118 25.7143L59.2223 25.6697H59.2667H59.311L59.3998 25.625H59.5329H59.6216L59.7547 25.5804H59.8877H60.0208L60.1983 25.5357H60.3314H60.4644L60.5975 25.4911H60.7306H60.8637H60.9524H61.1299H61.3517H61.5291H61.7066L61.884 25.5357H62.0171H62.0614H62.1058L62.1502 25.4911V25.3125L62.1945 25.134V25L62.1502 24.8215L62.1058 24.6429L61.9727 24.4643L61.884 24.375L61.7066 24.2411L61.5291 24.1518L61.3517 24.1072H61.1742H60.9081H60.6863H60.4201H60.1539H59.8434L59.5772 24.1518H59.311L59.0449 24.1965L58.8231 24.2411L58.5569 24.2857L58.3351 24.3304L58.1577 24.375L57.9802 24.4197L57.8028 24.4643L57.714 24.509L57.6253 24.5536L58.202 22.5447L58.3795 22.4554L58.5569 22.4107L58.7787 22.3215L58.9562 22.2768L59.178 22.2322H59.3998L59.6216 22.1875H59.8434L60.0652 22.1429H60.287H60.5532H60.8193H61.0855H61.3517H61.6178H61.884L62.1502 22.1875H62.372L62.6381 22.2768L62.9043 22.3215L63.1705 22.4554L63.4367 22.5447L63.7028 22.7232L63.9246 22.8572L64.1464 23.0357L64.3239 23.259L64.5013 23.4822L64.6344 23.75L64.7231 24.0179L64.7675 24.2857V24.5982L64.7231 24.9554L63.8359 29.4197Z" fill="white"/>
<path fill-rule="evenodd" clip-rule="evenodd" d="M63.5254 31.3393L63.5697 31.2946L63.8803 29.4196L63.7915 29.375L63.4366 31.25L63.5254 31.2054V31.3393H63.5697V31.2946L63.5254 31.3393Z" fill="white"/>
<path fill-rule="evenodd" clip-rule="evenodd" d="M61.3517 31.25L61.396 31.3392H63.5254V31.2053H61.396L61.4404 31.25H61.3517V31.3392H61.396L61.3517 31.25Z" fill="white"/>
<path fill-rule="evenodd" clip-rule="evenodd" d="M61.4848 30.3125L61.396 30.2678V30.4017L61.3517 30.625V30.9375V31.25H61.4404L61.4848 30.9375V30.625V30.4017V30.3125L61.396 30.2678L61.4848 30.3125Z" fill="white"/>
<path fill-rule="evenodd" clip-rule="evenodd" d="M58.2464 31.4285H58.4682L58.69 31.4732H58.9118L59.178 31.4285H59.3998L59.666 31.3839L59.8878 31.2946L60.1096 31.25L60.3314 31.1607L60.5532 31.0267L60.7306 30.9375L60.9081 30.8035L61.0855 30.7143L61.263 30.5803L61.396 30.4464L61.4848 30.3125L61.396 30.2678L61.3073 30.4017L61.1742 30.491L61.0412 30.625L60.8637 30.7589L60.6863 30.8482L60.5088 30.9375L60.287 31.0267L60.0652 31.116L59.8434 31.2053L59.6216 31.25L59.3998 31.2946L59.178 31.3392H58.9118L58.69 31.3839L58.4682 31.3392L58.2464 31.2946V31.4285Z" fill="white"/>
<path fill-rule="evenodd" clip-rule="evenodd" d="M56.2057 28.8393V29.0179V29.2411L56.2501 29.4197L56.2945 29.5982L56.3388 29.8214L56.3832 30L56.4719 30.1786L56.5606 30.3571L56.6937 30.5357L56.8268 30.7143L57.0043 30.8482L57.1817 30.9821L57.4035 31.1161L57.6697 31.25L57.9358 31.3393L58.2464 31.4286V31.2946L57.9358 31.25L57.6697 31.1607L57.4479 31.0268L57.2261 30.9375L57.0486 30.8036L56.9155 30.625L56.7824 30.4911L56.6494 30.3125L56.5606 30.1339L56.4719 29.9554L56.4276 29.7768L56.3832 29.5982L56.3388 29.4197V29.2411L56.2945 29.0179L56.3388 28.8393H56.2057Z" fill="white"/>
<path fill-rule="evenodd" clip-rule="evenodd" d="M59.2223 25.625L58.9118 25.6696L58.6456 25.7589L58.3351 25.8482L58.0689 25.9375L57.8471 26.0714L57.581 26.25L57.3591 26.4286L57.1373 26.6518L56.9155 26.8304L56.7381 27.0982L56.605 27.3214L56.4719 27.6339L56.3388 27.9018L56.2945 28.2143L56.2057 28.5268V28.8393H56.3388V28.5268L56.3832 28.2143L56.4719 27.9464L56.5606 27.6339L56.6937 27.3661L56.8268 27.1429L57.0043 26.9196L57.1817 26.6964L57.4035 26.5179L57.6253 26.3393L57.8915 26.2054L58.1577 26.0714L58.3795 25.9375L58.6456 25.8482L58.9118 25.7589L59.2223 25.7143V25.625Z" fill="white"/>
<path fill-rule="evenodd" clip-rule="evenodd" d="M60.9524 25.4464H60.8637H60.7306H60.5976L60.4645 25.4911H60.3314H60.1983H60.0209L59.8878 25.5357H59.7547L59.6216 25.5803H59.5329H59.3998H59.3111L59.2667 25.625H59.2224V25.7143H59.2667H59.3111L59.3998 25.6696H59.5329H59.6216H59.7547L59.8878 25.625H60.0209L60.1983 25.5803H60.3314H60.4645H60.5976L60.7306 25.5357H60.8637H60.9524V25.4464Z" fill="white"/>
<path fill-rule="evenodd" clip-rule="evenodd" d="M62.0614 25.5357L62.1058 25.4911H62.0614H62.0171H61.884L61.7065 25.4464H61.5291H61.3516H61.1298H60.9524V25.5357H61.1298H61.3516L61.5291 25.5803H61.7065H61.884H62.0171H62.0614H62.1058L62.1502 25.5357L62.1058 25.5803H62.1502V25.5357H62.0614Z" fill="white"/>
<path fill-rule="evenodd" clip-rule="evenodd" d="M62.1502 25V25.1339L62.1058 25.3125L62.0615 25.4911V25.5357H62.1502L62.1945 25.4911V25.3571L62.2389 25.1339V25H62.1502Z" fill="white"/>
<path fill-rule="evenodd" clip-rule="evenodd" d="M61.1742 24.1518H61.3516L61.5291 24.2411L61.7065 24.2857L61.8396 24.4196L61.9283 24.5089L62.0614 24.6429L62.1058 24.8214L62.1501 25H62.2389L62.1945 24.7768L62.1501 24.5982L62.0171 24.4643L61.884 24.3304L61.7509 24.1964L61.5734 24.1071L61.3516 24.0625H61.1742V24.1518Z" fill="white"/>
<path fill-rule="evenodd" clip-rule="evenodd" d="M57.5366 24.5535L57.6253 24.5982L57.7141 24.5535L57.8471 24.5089L57.9802 24.4643L58.1577 24.4196L58.3795 24.375L58.6013 24.3303L58.8231 24.2857L59.0449 24.241L59.3111 24.1964H59.5772L59.8434 24.1518H60.1539H60.4201H60.6863H60.9081H61.1742V24.0625H60.9081L60.6863 24.0178H60.4201L60.1539 24.0625H59.8434L59.5772 24.1071H59.3111L59.0449 24.1518L58.8231 24.1964L58.5569 24.241L58.3351 24.2857H58.1577L57.9802 24.375L57.8028 24.4196L57.6697 24.4643L57.581 24.5089L57.6697 24.5982L57.5366 24.5535Z" fill="white"/>
<path fill-rule="evenodd" clip-rule="evenodd" d="M58.1577 22.5V22.5446L57.5366 24.5536L57.6697 24.5982L58.2464 22.5446L58.202 22.5893L58.1577 22.5V22.5446V22.5Z" fill="white"/>
<path fill-rule="evenodd" clip-rule="evenodd" d="M61.8841 22.0982H61.6179L61.3517 22.0536H61.0856H60.8194H60.5532L60.2871 22.0982H60.0652H59.8434L59.6216 22.1429L59.3555 22.1875H59.178L58.9562 22.2322L58.7344 22.2768L58.557 22.3214L58.3795 22.4107L58.1577 22.5L58.2021 22.5893L58.3795 22.5L58.6013 22.4554L58.7788 22.3661L58.9562 22.3214H59.178L59.3998 22.2768L59.6216 22.2322H59.8434L60.0652 22.1875H60.2871H60.5532H60.8194H61.0856H61.3517H61.6179H61.8841V22.0982Z" fill="white"/>
<path fill-rule="evenodd" clip-rule="evenodd" d="M64.7675 24.9553L64.8119 24.5982V24.2857L64.7675 24.0178L64.6788 23.7053L64.5457 23.4375L64.3683 23.2143L64.1465 22.9911L63.969 22.8125L63.7028 22.6786L63.481 22.5L63.2149 22.4107L62.9487 22.2768L62.6382 22.2321L62.4164 22.1428L62.1502 22.0982H61.884V22.1875L62.1502 22.2321L62.372 22.2768L62.6382 22.3214L62.9043 22.4107L63.1705 22.5L63.3923 22.6339L63.6585 22.7678L63.8803 22.9018L64.1021 23.0803L64.2795 23.3036L64.457 23.5268L64.5901 23.75L64.6788 24.0178L64.7231 24.2857V24.5982L64.6788 24.9553H64.7675Z" fill="white"/>
<path fill-rule="evenodd" clip-rule="evenodd" d="M63.8803 29.4196L64.7675 24.9553H64.6788L63.7916 29.375L63.8803 29.4196Z" fill="white"/>
<path fill-rule="evenodd" clip-rule="evenodd" d="M61.8396 27.1875L61.7953 27.1429L61.7509 27.0982H61.7066L61.6178 27.0536H61.5291H61.4404H61.3073H61.1742H61.0411L60.9081 27.0982H60.775H60.6419L60.5088 27.1429H60.4201L60.287 27.1875H60.2426H60.1539L60.1095 27.2322L60.0208 27.2768H59.9321L59.799 27.3214L59.7103 27.4107L59.5772 27.4554L59.4885 27.5447L59.3554 27.5893L59.2667 27.6786L59.178 27.7679L59.0892 27.9018L59.0005 28.0357L58.9562 28.125L58.9118 28.2589L58.8674 28.4375V28.7054L58.9118 28.9286L58.9562 29.1072L59.0892 29.2411L59.178 29.3304L59.3554 29.375H59.4885L59.6216 29.4197L59.8877 29.375H60.1095L60.3314 29.3304L60.5088 29.2857L60.6862 29.1964L60.8637 29.1072L60.9968 29.0179L61.1742 28.9286L61.2629 28.8393L61.3517 28.75L61.4404 28.6161L61.5291 28.5268L61.6178 28.4375V28.3036L61.6622 28.2143L61.7066 28.125L61.7509 27.9018V27.6339L61.7953 27.4107L61.8396 27.1875Z" fill="#FCB331"/>
<path fill-rule="evenodd" clip-rule="evenodd" d="M79.0962 30.1339V29.9107L79.1849 29.6875L79.2736 29.5089L79.4067 29.3303L79.5842 29.1518L79.806 29.0625L80.0278 29.0178L80.2496 28.9732L80.4714 29.0178L80.6932 29.0625L80.915 29.1518L81.0925 29.3303L81.2255 29.5089L81.3586 29.6875L81.403 29.9107L81.4473 30.1339H81.1812V29.9553L81.1368 29.7768L81.0481 29.5982L80.915 29.4643L80.7819 29.3303L80.6488 29.2857L80.427 29.1964H80.2496H80.0721L79.8947 29.2857L79.7172 29.3303L79.5842 29.4643L79.4954 29.5982L79.4067 29.7768L79.3624 29.9553L79.318 30.1339H79.0962Z" fill="white"/>
<path fill-rule="evenodd" clip-rule="evenodd" d="M79.8503 30.1339V29.5982H80.294H80.3827L80.4714 29.6428H80.5601L80.6045 29.6875L80.6488 29.7321L80.6932 29.7768V29.8661V29.9107V30V30.0446L80.6488 30.0893V30.1339H80.294L80.3383 30.0893H80.3827H80.427L80.4714 30.0446H80.5158V30L80.5601 29.9553V29.9107V29.8661L80.5158 29.8214H80.4714L80.427 29.7768H80.3827H80.3383H80.294H80.0278V30.1339H79.8503Z" fill="white"/>
<path fill-rule="evenodd" clip-rule="evenodd" d="M79.0962 30.1339L79.0518 30.1786L79.0962 30.4018L79.1849 30.625L79.2736 30.8482L79.4067 31.0268L79.5842 31.1607L79.806 31.25L80.0278 31.3393H80.2496H80.4714L80.6932 31.25L80.915 31.1607L81.0924 31.0268L81.2255 30.8482L81.3586 30.625L81.403 30.4018L81.4473 30.1786V30.1339H81.1812V30.1786V30.3571L81.1368 30.5357L81.0481 30.7143L80.915 30.8482L80.7819 30.9821L80.6488 31.0714L80.427 31.1161L80.2496 31.1607L80.0721 31.1161L79.8947 31.0714L79.7172 30.9821L79.5842 30.8482L79.4954 30.7143L79.4067 30.5357L79.3623 30.3571L79.318 30.1786V30.1339H79.0962Z" fill="white"/>
<path fill-rule="evenodd" clip-rule="evenodd" d="M79.8503 30.1339V30.625H80.0278V30.2232H80.2496L80.5158 30.625H80.6932L80.427 30.2232H80.4714L80.5601 30.1786H80.6045L80.6488 30.1339H80.294H80.2496H80.0278H79.8503Z" fill="white"/>
<path d="M79.0518 30.1786L79.0962 29.9553L79.1849 29.7321L79.318 29.5089L79.4511 29.3303L79.6285 29.1964L79.8503 29.1071L80.0721 29.0178L80.2939 28.9732L80.5157 29.0178L80.7375 29.1071L80.9594 29.1964L81.1368 29.3303L81.2699 29.5089L81.403 29.7321L81.4917 29.9553L81.536 30.1786L81.4917 30.4018L81.403 30.625L81.2699 30.8482L81.1368 31.0268L80.9594 31.1607L80.7375 31.25L80.5157 31.3393L80.2939 31.3839L80.0721 31.3393L79.8503 31.25L79.6285 31.1607L79.4511 31.0268L79.318 30.8482L79.1849 30.625L79.0962 30.4018L79.0518 30.1786ZM80.0278 30.625H79.8503V29.5982H80.2939H80.3827H80.4714L80.5601 29.6428L80.6045 29.6875L80.6488 29.7321L80.6932 29.7768V29.8214V29.8661V29.9553V30L80.6488 30.0446L80.6045 30.0893L80.5601 30.1339H80.5157H80.4714H80.427L80.6932 30.5357H80.5157L80.2496 30.1339H80.0278V30.625V30.625ZM80.2496 30.1339H80.3383H80.3827H80.427H80.4714L80.5157 30.0893V30.0446V30V29.9107V29.8661V29.8214H80.4714H80.427H80.3827H80.3383H80.2939H80.0278V30.1786H80.2496V30.1339ZM80.2496 31.1607H80.427L80.6045 31.1161L80.7819 31.0268L80.915 30.8928L81.0037 30.7589L81.0924 30.5804L81.1812 30.3571V30.1339V29.9107L81.1368 29.7321L81.0481 29.5536L80.9594 29.4196L80.8263 29.2857L80.6488 29.1964L80.4714 29.1518H80.2939H80.1165L79.939 29.1964L79.7616 29.2857L79.6285 29.4196L79.5398 29.5536L79.4511 29.7321L79.4067 29.9107V30.1339V30.3571L79.4511 30.5357L79.5398 30.7143L79.6285 30.8482L79.7616 30.9821L79.939 31.0714L80.1165 31.1161L80.2496 31.1607Z" stroke="white" stroke-width="0.216" stroke-miterlimit="2.6131"/>
<path fill-rule="evenodd" clip-rule="evenodd" d="M64.457 31.25H66.8525L67.6953 26.4732L67.7397 26.2947L67.7841 26.1161L67.8284 25.9375L67.8728 25.7143L67.9615 25.5357L68.0946 25.3572L68.1833 25.2232L68.3164 25.0447L68.4495 24.9107L68.6269 24.7768L68.8487 24.6429L69.0262 24.5536L69.2923 24.4643L69.5585 24.375L69.869 24.3304H70.1796H70.3127H70.357H70.4014L70.7563 22.1429L70.5345 22.1875H70.3127L70.0909 22.2322L69.869 22.2768L69.6916 22.3661L69.5142 22.4554L69.3811 22.5447L69.2036 22.634L69.0705 22.7679L68.8931 22.8572L68.76 22.9911L68.6269 23.125L68.5382 23.3036L68.4051 23.4375L68.272 23.6161L68.139 23.75L68.4051 22.2322H66.054L64.457 31.25Z" fill="white"/>
<path d="M64.457 31.25H66.8525L67.6953 26.4732L67.7397 26.2947L67.7841 26.1161L67.8284 25.9375L67.8728 25.7143L67.9615 25.5357L68.0946 25.3572L68.1833 25.2232L68.3164 25.0447L68.4495 24.9107L68.6269 24.7768L68.8487 24.6429L69.0262 24.5536L69.2923 24.4643L69.5585 24.375L69.869 24.3304H70.1796H70.3127H70.357H70.4014L70.7563 22.1429L70.5345 22.1875H70.3127L70.0909 22.2322L69.869 22.2768L69.6916 22.3661L69.5142 22.4554L69.3811 22.5447L69.2036 22.634L69.0705 22.7679L68.8931 22.8572L68.76 22.9911L68.6269 23.125L68.5382 23.3036L68.4051 23.4375L68.272 23.6161L68.139 23.75L68.4051 22.2322H66.054L64.457 31.25Z" stroke="white" stroke-width="0.216" stroke-miterlimit="2.6131"/>
<path fill-rule="evenodd" clip-rule="evenodd" d="M42.2763 31.25H44.6718H44.7162L45.5147 26.4732V26.2947L45.559 26.1161L45.6034 25.9375L45.6921 25.759L45.7365 25.5804L45.8252 25.4465L45.9139 25.2679L46.047 25.134L46.1801 25L46.3132 24.9107L46.535 24.7768L46.7124 24.6875L46.9342 24.5982L47.2004 24.5536L47.5109 24.509L47.8215 24.4643H47.8658V24.509H47.9102H47.9546H47.9989H48.0433H48.0876V24.375L48.132 24.2411L48.1764 24.0625L48.2207 23.8393L48.3094 23.6161L48.3538 23.3482L48.4425 23.125L48.5312 22.9465L48.62 22.8125L48.6643 22.634L48.7531 22.5L48.8418 22.3661L48.8861 22.2768L48.9305 22.2322L48.9749 22.1875H48.9305H48.8861H48.7974H48.7531L48.7087 22.1429H48.62H48.5756L48.3094 22.1875H48.0876L47.8658 22.2322L47.644 22.2768L47.4666 22.3661L47.2891 22.4554L47.156 22.5L46.9786 22.634L46.8455 22.7232L46.7124 22.8572L46.5794 22.9911L46.4463 23.125L46.3132 23.259L46.2245 23.4375L46.0914 23.6161L45.9583 23.75L46.2688 22.2322H43.8733L42.2763 31.25Z" fill="white"/>
<path d="M42.2763 31.25H44.6718H44.7162L45.5147 26.4732V26.2947L45.559 26.1161L45.6034 25.9375L45.6921 25.759L45.7365 25.5804L45.8252 25.4465L45.9139 25.2679L46.047 25.134L46.1801 25L46.3132 24.9107L46.535 24.7768L46.7124 24.6875L46.9342 24.5982L47.2004 24.5536L47.5109 24.509L47.8215 24.4643H47.8658V24.509H47.9102H47.9546H47.9989H48.0433H48.0876V24.375L48.132 24.2411L48.1764 24.0625L48.2207 23.8393L48.3094 23.6161L48.3538 23.3482L48.4425 23.125L48.5312 22.9465L48.62 22.8125L48.6643 22.634L48.7531 22.5L48.8418 22.3661L48.8861 22.2768L48.9305 22.2322L48.9749 22.1875H48.9305H48.8861H48.7974H48.7531L48.7087 22.1429H48.62H48.5756L48.3094 22.1875H48.0876L47.8658 22.2322L47.644 22.2768L47.4666 22.3661L47.2891 22.4554L47.156 22.5L46.9786 22.634L46.8455 22.7232L46.7124 22.8572L46.5794 22.9911L46.4463 23.125L46.3132 23.259L46.2245 23.4375L46.0914 23.6161L45.9583 23.75L46.2688 22.2322H43.8733L42.2763 31.25Z" stroke="white" stroke-width="0.216" stroke-miterlimit="2.6131"/>
<path fill-rule="evenodd" clip-rule="evenodd" d="M79.0962 40.1339V40.0893L79.1849 39.9107L79.2736 39.6875L79.4067 39.5089L79.5842 39.375L79.806 39.2857L80.0278 39.2411L80.2496 39.1964L80.4714 39.2411L80.6932 39.2857L80.915 39.375L81.0925 39.5089L81.2255 39.6875L81.3586 39.9107L81.403 40.0893V40.1339H81.1812L81.1368 39.9553L81.0481 39.8214L80.915 39.6428L80.7819 39.5536L80.6488 39.4643L80.427 39.375H80.2496H80.0721L79.8947 39.4643L79.7172 39.5536L79.5842 39.6428L79.4954 39.8214L79.4067 39.9553L79.3624 40.1339H79.0962Z" fill="#FCB331"/>
<path fill-rule="evenodd" clip-rule="evenodd" d="M79.8503 40.1339V39.866H80.294H80.3827H80.4714H80.5601L80.6045 39.9107L80.6488 39.9553L80.6932 40V40.0446V40.1339H80.5601V40.0892V40.0446H80.5158V40H80.4714H80.427L80.3827 39.9553H80.3383H80.294H80.0278V40.1339H79.8503Z" fill="#FCB331"/>
<path fill-rule="evenodd" clip-rule="evenodd" d="M79.0518 40.3125L79.0962 40.1339H79.3623L79.318 40.3125H79.0518Z" fill="#FCB331"/>
<path fill-rule="evenodd" clip-rule="evenodd" d="M79.8503 40.3125V40.1339H80.0278V40.3125H80.2496H80.3383L80.3827 40.2678H80.427H80.4714L80.5158 40.2232V40.1786H80.5601V40.1339H80.6932V40.1786V40.2678L80.6488 40.3125H79.8503Z" fill="#FCB331"/>
<path fill-rule="evenodd" clip-rule="evenodd" d="M81.1812 40.3125V40.1339H81.403L81.4473 40.3125H81.1812Z" fill="#FCB331"/>
<path fill-rule="evenodd" clip-rule="evenodd" d="M79.0518 40.3125V40.3571L79.0962 40.5804L79.1849 40.8036L79.2736 41.0268L79.4067 41.2054L79.5842 41.3393L79.806 41.4286L80.0278 41.5179L80.2496 41.5625L80.4714 41.5179L80.6932 41.4286L80.915 41.3393L81.0924 41.2054L81.2255 41.0268L81.3586 40.8036L81.403 40.5804L81.4473 40.3571V40.3125H81.1812V40.3571V40.5357L81.1368 40.7589L81.0481 40.8929L80.915 41.0268L80.7819 41.1607L80.6488 41.25L80.427 41.2946L80.2496 41.3393L80.0721 41.2946L79.8947 41.25L79.7172 41.1607L79.5842 41.0268L79.4954 40.8929L79.4067 40.7589L79.3623 40.5357L79.318 40.3571V40.3125H79.0518Z" fill="#FCB331"/>
<path fill-rule="evenodd" clip-rule="evenodd" d="M79.8503 40.3125V40.8036H80.0278V40.4018H80.2496L80.5158 40.8036H80.6932L80.427 40.4018H80.4714L80.5601 40.3571H80.6045L80.6488 40.3125H79.8503Z" fill="#FCB331"/>
</g>
<defs>
<clipPath id="clip0_598_93">
<rect width="83" height="50" fill="white"/>
</clipPath>
</defs>
</svg>
