<svg width="685" height="276" viewBox="0 0 685 276" fill="none" xmlns="http://www.w3.org/2000/svg">
<g opacity="0.5">
<path d="M38.8 269.7H39.5V273.3C39.5 273.7 39.4 274.1 39.1 274.4C38.8 274.7 38.4 274.8 38 274.8C37.5 274.8 37.2 274.7 36.9 274.4C36.6 274.2 36.5 273.8 36.5 273.4H37.2C37.2 273.7 37.3 273.9 37.4 274.1C37.5 274.3 37.7 274.3 38 274.3C38.3 274.3 38.4 274.2 38.6 274C38.8 273.8 38.9 273.6 38.9 273.3V269.7H38.8ZM43.2 273.5H41.3L40.9 274.8H40.2L42 269.8H42.6L44.4 274.8H43.7L43.2 273.5ZM41.5 272.9H43L42.3 270.7L41.5 272.9ZM48.8 274.8H48.1L45.7 271V274.8H45V269.8H45.7L48.1 273.6V269.8H48.8V274.8ZM98.5 272.6H96.4V274.8H95.7V269.8H98.8V270.3H96.4V272H98.5V272.6ZM102.3 272.4H100.2V274.2H102.6V274.7H99.5V269.7H102.5V270.2H100.1V271.8H102.2V272.4H102.3ZM103.5 274.8V269.8H105.1C105.6 269.8 106 269.9 106.3 270.1C106.6 270.3 106.7 270.7 106.7 271.1C106.7 271.3 106.6 271.5 106.5 271.7C106.4 271.9 106.2 272 106 272.1C106.3 272.1 106.6 272.3 106.8 272.5C107 272.8 107.1 273 107.1 273.4C107.1 273.8 106.9 274.2 106.7 274.4C106.4 274.7 106 274.8 105.5 274.8H103.5ZM104.1 272.4V274.2H105.4C105.7 274.2 105.9 274.1 106.1 274C106.3 273.8 106.4 273.6 106.4 273.3C106.4 273 106.3 272.8 106.1 272.6C105.9 272.4 105.7 272.3 105.4 272.3H104.1V272.4ZM104.1 271.9H105.2C105.5 271.9 105.7 271.8 105.8 271.7C106 271.6 106 271.4 106 271.1C106 270.8 105.9 270.6 105.7 270.5C105.5 270.4 105.3 270.3 105 270.3H104V271.9H104.1ZM156.1 273.8L157.7 269.7H158.6V274.7H157.9V270.9L156.4 274.7H155.9L154.3 270.8V274.7H153.6V269.7H154.5L156.1 273.8ZM162.4 273.5H160.5L160.1 274.8H159.4L161.2 269.8H161.8L163.5 274.8H162.8L162.4 273.5ZM160.7 272.9H162.2L161.5 270.7L160.7 272.9ZM165 272.6V274.8H164.3V269.8H166C166.5 269.8 167 269.9 167.3 270.2C167.6 270.5 167.7 270.8 167.7 271.2C167.7 271.5 167.6 271.7 167.5 271.9C167.4 272.1 167.2 272.2 166.9 272.3C167.2 272.4 167.4 272.5 167.5 272.7C167.6 272.9 167.7 273.1 167.7 273.4V273.9C167.7 274.1 167.7 274.2 167.7 274.3C167.8 274.4 167.8 274.5 167.9 274.6V274.7H167.2C167.1 274.6 167 274.5 167 274.4C167 274.2 166.9 274.1 166.9 273.9V273.4C166.9 273.1 166.8 272.9 166.7 272.8C166.5 272.6 166.3 272.5 166.1 272.5H165V272.6ZM165 272.1H166C166.4 272.1 166.7 272 166.8 271.9C167 271.8 167.1 271.6 167.1 271.2C167.1 270.9 167 270.7 166.8 270.5C166.6 270.4 166.4 270.3 166 270.3H165V272.1ZM217 273.5H215.1L214.6 274.8H214L215.8 269.8H216.4L218.2 274.8H217.5L217 273.5ZM215.4 272.9H216.9L216.2 270.7L215.4 272.9ZM219.6 272.8V274.8H218.9V269.8H220.8C221.3 269.8 221.8 270 222 270.2C222.3 270.5 222.4 270.8 222.4 271.3C222.4 271.7 222.3 272.1 222 272.4C221.7 272.7 221.3 272.8 220.8 272.8H219.6ZM219.6 272.2H220.8C221.1 272.2 221.4 272.1 221.6 271.9C221.8 271.7 221.9 271.5 221.9 271.2C221.9 270.9 221.8 270.7 221.6 270.5C221.4 270.3 221.2 270.2 220.8 270.2H219.6V272.2ZM224.1 272.6V274.8H223.4V269.8H225.1C225.6 269.8 226.1 269.9 226.4 270.2C226.7 270.5 226.8 270.8 226.8 271.2C226.8 271.5 226.7 271.7 226.6 271.9C226.5 272.1 226.3 272.2 226 272.3C226.3 272.4 226.5 272.5 226.6 272.7C226.7 272.9 226.8 273.1 226.8 273.4V273.9C226.8 274.1 226.8 274.2 226.9 274.3C226.9 274.4 227 274.5 227.1 274.6V274.7H226.4C226.3 274.6 226.2 274.5 226.2 274.4C226.2 274.2 226.1 274.1 226.1 273.9V273.4C226.1 273.1 226 272.9 225.9 272.8C225.7 272.6 225.5 272.5 225.3 272.5H224.1V272.6ZM224.1 272.1H225.1C225.5 272.1 225.8 272 225.9 271.9C226.1 271.8 226.2 271.6 226.2 271.2C226.2 270.9 226.1 270.7 225.9 270.5C225.7 270.4 225.5 270.3 225.1 270.3H224.1V272.1ZM276.1 273.8L277.7 269.7H278.6V274.7H277.9V270.9L276.4 274.7H275.9L274.3 270.8V274.7H273.6V269.7H274.5L276.1 273.8ZM282.4 273.5H280.5L280.1 274.8H279.4L281.2 269.8H281.8L283.6 274.8H282.9L282.4 273.5ZM280.7 272.9H282.2L281.5 270.7L280.7 272.9ZM285.5 272.3L286.8 269.7H287.6L285.8 273V274.8H285.1V273L283.4 269.8H284.2L285.5 272.3ZM336.1 269.7H336.8V273.3C336.8 273.7 336.6 274.1 336.4 274.4C336.1 274.7 335.8 274.8 335.3 274.8C334.9 274.8 334.5 274.7 334.2 274.4C333.9 274.2 333.8 273.8 333.8 273.4H334.4C334.4 273.7 334.5 273.9 334.6 274.1C334.8 274.3 334.9 274.3 335.2 274.3C335.5 274.3 335.7 274.2 335.8 274C336 273.8 336 273.6 336 273.3V269.7H336.1ZM341.6 269.7V273C341.6 273.6 341.4 274 341.1 274.3C340.8 274.6 340.3 274.8 339.7 274.8C339.2 274.8 338.7 274.6 338.4 274.3C338.1 274 337.9 273.6 337.9 273V269.7H338.6V273C338.6 273.4 338.7 273.7 338.9 273.9C339.1 274.1 339.4 274.2 339.7 274.2C340.1 274.2 340.4 274.1 340.6 273.9C340.8 273.7 340.9 273.4 340.9 273V269.7H341.6ZM346.5 274.8H345.8L343.4 271V274.8H342.7V269.8H343.4L345.8 273.6V269.8H346.5V274.8ZM395.4 269.7H396.1V273.3C396.1 273.7 396 274.1 395.7 274.4C395.4 274.7 395 274.8 394.6 274.8C394.1 274.8 393.8 274.7 393.5 274.4C393.2 274.2 393.1 273.8 393.1 273.4H393.8C393.8 273.7 393.9 273.9 394 274.1C394.1 274.3 394.3 274.3 394.6 274.3C394.9 274.3 395 274.2 395.2 274C395.4 273.8 395.5 273.6 395.5 273.3V269.7H395.4ZM400.9 269.7V273C400.9 273.6 400.7 274 400.4 274.3C400 274.6 399.6 274.8 399 274.8C398.5 274.8 398 274.6 397.7 274.3C397.4 274 397.2 273.6 397.2 273V269.7H397.9V273C397.9 273.4 398 273.7 398.2 273.9C398.4 274.1 398.7 274.2 399.1 274.2C399.5 274.2 399.8 274.1 400 273.9C400.3 273.7 400.3 273.4 400.3 273V269.7H400.9ZM402.7 274.2H405.1V274.7H402V269.7H402.7V274.2ZM454.1 273.5H452.2L451.8 274.8H451.1L452.9 269.8H453.5L455.3 274.8H454.6L454.1 273.5ZM452.5 272.9H454L453.3 270.7L452.5 272.9ZM459.7 269.7V273C459.7 273.6 459.5 274 459.2 274.3C458.9 274.6 458.4 274.8 457.8 274.8C457.3 274.8 456.8 274.6 456.5 274.3C456.2 274 456 273.6 456 273V269.7H456.7V273C456.7 273.4 456.8 273.7 457 273.9C457.2 274.1 457.5 274.2 457.9 274.2C458.3 274.2 458.6 274.1 458.8 273.9C459 273.7 459.1 273.4 459.1 273V269.7H459.7ZM464.4 274.1C464.3 274.3 464.1 274.5 463.8 274.6C463.5 274.8 463.1 274.9 462.7 274.9C462.1 274.9 461.6 274.7 461.2 274.3C460.9 273.9 460.6 273.4 460.6 272.8V271.8C460.6 271.2 460.8 270.7 461.2 270.3C461.5 269.9 462 269.7 462.6 269.7C463.2 269.7 463.6 269.9 463.9 270.1C464.2 270.4 464.4 270.8 464.4 271.2H463.7C463.7 270.9 463.6 270.6 463.4 270.4C463.2 270.2 462.9 270.1 462.5 270.1C462.1 270.1 461.8 270.2 461.6 270.5C461.4 270.8 461.3 271.2 461.3 271.6V272.6C461.3 273 461.4 273.4 461.7 273.7C462 274 462.3 274.1 462.7 274.1C463 274.1 463.2 274.1 463.4 274C463.6 273.9 463.7 273.8 463.8 273.7V272.6H462.7V272.1H464.5V274.1H464.4ZM513.9 273.5C513.9 273.2 513.8 273.1 513.6 272.9C513.4 272.7 513.2 272.6 512.7 272.5C512.2 272.4 511.8 272.2 511.5 272C511.2 271.7 511.1 271.4 511.1 271C511.1 270.6 511.3 270.3 511.5 270C511.8 269.7 512.2 269.6 512.7 269.6C513.2 269.6 513.7 269.8 514 270C514.3 270.3 514.5 270.7 514.5 271H513.9C513.9 270.7 513.8 270.5 513.6 270.3C513.4 270.1 513.2 270 512.8 270C512.4 270 512.3 270.1 512.1 270.2C511.9 270.4 511.8 270.5 511.8 270.8C511.8 271 511.9 271.2 512.1 271.3C512.3 271.5 512.6 271.6 513 271.7C513.5 271.9 513.9 272 514.2 272.3C514.5 272.6 514.6 272.9 514.6 273.2C514.6 273.6 514.4 273.9 514.1 274.2C513.8 274.5 513.4 274.6 512.9 274.6C512.4 274.6 512 274.5 511.6 274.2C511.2 273.9 511 273.6 511.1 273.1H511.7C511.7 273.4 511.8 273.7 512 273.8C512.3 274 512.5 274.1 512.8 274.1C513.1 274.1 513.4 274 513.6 273.9C513.8 274 513.9 273.8 513.9 273.5ZM518.2 272.4H516.1V274.2H518.5V274.7H515.4V269.7H518.4V270.2H516V271.8H518.1V272.4H518.2ZM520.1 272.8V274.8H519.4V269.8H521.3C521.8 269.8 522.3 270 522.6 270.2C522.9 270.5 523 270.8 523 271.3C523 271.7 522.8 272.1 522.6 272.4C522.3 272.7 521.9 272.8 521.3 272.8H520.1ZM520.1 272.2H521.3C521.6 272.2 521.9 272.1 522.1 271.9C522.3 271.7 522.4 271.5 522.4 271.2C522.4 270.9 522.3 270.7 522.1 270.5C521.9 270.3 521.7 270.2 521.3 270.2H520.1V272.2ZM573.4 272.7C573.4 273.3 573.2 273.8 572.8 274.2C572.4 274.6 571.9 274.8 571.3 274.8C570.7 274.8 570.3 274.6 569.9 274.2C569.6 273.8 569.4 273.3 569.4 272.7V271.8C569.4 271.2 569.6 270.7 569.9 270.3C570.3 269.9 570.8 269.7 571.3 269.7C571.9 269.7 572.4 269.9 572.8 270.3C573.2 270.7 573.4 271.2 573.4 271.8V272.7ZM572.7 271.8C572.7 271.4 572.6 271 572.3 270.7C572 270.4 571.7 270.3 571.3 270.3C570.9 270.3 570.6 270.4 570.4 270.7C570.1 271 570 271.4 570 271.8V272.7C570 273.1 570.1 273.5 570.4 273.8C570.6 274.1 570.9 274.2 571.3 274.2C571.7 274.2 572.1 274.1 572.3 273.8C572.6 273.5 572.7 273.1 572.7 272.7V271.8ZM577.9 273.2C577.9 273.7 577.7 274.1 577.4 274.4C577.1 274.7 576.6 274.9 576 274.9C575.4 274.9 575 274.7 574.6 274.3C574.3 273.9 574.1 273.4 574.1 272.8V271.9C574.1 271.3 574.3 270.8 574.6 270.4C575 270 575.4 269.8 576 269.8C576.6 269.8 577 270 577.4 270.2C577.7 270.5 577.9 270.9 577.9 271.4H577.2C577.2 271.1 577.1 270.8 576.9 270.5C576.7 270.3 576.4 270.2 576 270.2C575.6 270.2 575.3 270.4 575.1 270.6C574.9 270.9 574.8 271.3 574.8 271.7V272.6C574.8 273 574.9 273.4 575.1 273.7C575.4 274 575.6 274.1 576 274.1C576.4 274.1 576.7 274 576.9 273.8C577.1 273.6 577.2 273.3 577.2 273H577.9V273.2ZM582.3 270.3H580.6V274.8H579.9V270.3H578.2V269.8H582.2V270.3H582.3ZM632.4 274.8H631.7L629.3 271V274.8H628.6V269.8H629.3L631.7 273.6V269.8H632.4V274.8ZM637.4 272.7C637.4 273.3 637.2 273.8 636.8 274.2C636.4 274.6 635.9 274.8 635.3 274.8C634.7 274.8 634.3 274.6 633.9 274.2C633.5 273.8 633.4 273.3 633.4 272.7V271.8C633.4 271.2 633.6 270.7 633.9 270.3C634.3 269.9 634.8 269.7 635.3 269.7C635.9 269.7 636.4 269.9 636.8 270.3C637.2 270.7 637.4 271.2 637.4 271.8V272.7ZM636.8 271.8C636.8 271.4 636.7 271 636.5 270.7C636.2 270.4 635.9 270.3 635.5 270.3C635.1 270.3 634.8 270.4 634.5 270.7C634.3 271 634.2 271.4 634.2 271.8V272.7C634.2 273.1 634.3 273.5 634.5 273.8C634.8 274.1 635.1 274.2 635.5 274.2C635.9 274.2 636.3 274.1 636.5 273.8C636.8 273.5 636.8 273.1 636.8 272.7V271.8ZM639.9 273.4L640 273.8L640.1 273.4L641.4 269.7H642.1L640.2 274.7H639.6L637.7 269.7H638.5L639.9 273.4ZM688.5 274.8V269.8H690.1C690.8 269.8 691.3 270 691.7 270.4C692.1 270.8 692.3 271.3 692.3 272V272.7C692.3 273.4 692.1 273.9 691.7 274.3C691.3 274.7 690.8 274.9 690.1 274.9H688.5V274.8ZM689.2 270.3V274.3H690.1C690.6 274.3 690.9 274.1 691.2 273.8C691.5 273.5 691.6 273.1 691.6 272.6V271.9C691.6 271.4 691.5 271 691.2 270.8C690.9 270.5 690.6 270.3 690.1 270.3H689.2ZM696 272.4H693.9V274.2H696.3V274.7H693.2V269.7H696.2V270.2H693.8V271.8H695.9V272.4H696ZM700.8 273.2C700.8 273.7 700.6 274.1 700.3 274.4C700 274.7 699.5 274.9 699 274.9C698.4 274.9 698 274.7 697.6 274.3C697.3 273.9 697.1 273.4 697.1 272.8V271.9C697.1 271.3 697.3 270.8 697.6 270.4C697.9 270 698.4 269.8 699 269.8C699.6 269.8 700 270 700.4 270.2C700.7 270.5 700.9 270.9 700.9 271.4H700.2C700.2 271.1 700.1 270.8 699.9 270.5C699.7 270.3 699.4 270.2 699 270.2C698.6 270.2 698.3 270.4 698.1 270.6C697.9 270.9 697.8 271.3 697.8 271.7V272.6C697.8 273 697.9 273.4 698.1 273.7C698.3 274 698.6 274.1 699 274.1C699.4 274.1 699.7 274 699.9 273.8C700.1 273.6 700.2 273.3 700.2 273H700.8V273.2Z" fill="#49545A"/>
<path d="M1.7 17.8H1V13.6H0V13.1L1.7 12.9V17.8ZM6.6 16.1C6.6 16.6 6.4 17.1 6.2 17.4C5.9 17.7 5.5 17.9 5.1 17.9C4.6 17.9 4.3 17.7 4 17.4C3.6 17.1 3.5 16.7 3.5 16.1V14.7C3.5 14.2 3.6 13.7 3.9 13.4C4.2 13.1 4.6 13 5 13C5.4 13 5.8 13.2 6.1 13.5C6.4 13.8 6.5 14.3 6.5 14.8V16.1H6.6ZM5.9 14.6C5.9 14.3 5.8 14 5.7 13.8C5.5 13.6 5.3 13.5 5.1 13.5C4.8 13.5 4.6 13.6 4.4 13.8C4.3 14 4.2 14.3 4.2 14.6V16.3C4.2 16.7 4.3 16.9 4.5 17.1C4.6 17.3 4.8 17.4 5.1 17.4C5.4 17.4 5.6 17.3 5.7 17.1C5.9 16.9 5.9 16.6 5.9 16.3V14.6ZM10.3 16.1C10.3 16.6 10.2 17.1 9.9 17.4C9.6 17.7 9.3 17.9 8.8 17.9C8.3 17.9 8 17.7 7.7 17.4C7.4 17.1 7.3 16.7 7.3 16.1V14.7C7.3 14.2 7.4 13.7 7.7 13.4C8 13.1 8.3 13 8.8 13C9.2 13 9.6 13.2 9.9 13.5C10.2 13.8 10.3 14.3 10.3 14.8V16.1ZM9.7 14.6C9.7 14.3 9.6 14 9.4 13.8C9.2 13.6 9.1 13.5 8.8 13.5C8.5 13.5 8.3 13.6 8.2 13.8C8 14 7.9 14.3 7.9 14.6V16.3C7.9 16.7 8 16.9 8.2 17.1C8.4 17.3 8.5 17.4 8.8 17.4C9.1 17.4 9.3 17.3 9.4 17.1C9.6 16.9 9.7 16.6 9.7 16.3V14.6ZM2.9 41.6C3.2 41.6 3.5 41.5 3.7 41.3C3.9 41.1 4 40.8 4 40.4V40C3.9 40.2 3.8 40.3 3.6 40.3C3.4 40.4 3.3 40.4 3.1 40.4C2.6 40.4 2.3 40.2 2 40C1.7 39.7 1.6 39.3 1.6 38.8C1.6 38.3 1.8 37.9 2 37.6C2.3 37.3 2.6 37.2 3 37.2C3.5 37.2 3.9 37.3 4.1 37.6C4.4 37.9 4.5 38.3 4.5 38.9V40.3C4.5 40.9 4.3 41.3 4 41.6C3.8 41.9 3.4 42.1 2.9 42.1C2.7 42.1 2.6 42.1 2.4 42.1C2.2 42.1 2.1 42 1.9 41.9L2 41.4C2.1 41.5 2.3 41.5 2.4 41.6C2.5 41.6 2.7 41.6 2.9 41.6ZM3 39.9C3.2 39.9 3.4 39.8 3.6 39.7C3.7 39.6 3.9 39.5 3.9 39.3V38.7C3.9 38.4 3.8 38.1 3.7 37.9C3.5 37.7 3.3 37.6 3 37.6C2.8 37.6 2.6 37.7 2.4 37.9C2.2 38.1 2.2 38.4 2.2 38.7C2.2 39 2.3 39.3 2.4 39.5C2.6 39.8 2.8 39.9 3 39.9ZM8.4 40.3C8.4 40.8 8.3 41.3 8 41.6C7.8 41.9 7.4 42.1 6.9 42.1C6.5 42.1 6.1 41.9 5.8 41.7C5.5 41.4 5.4 40.9 5.4 40.4V39C5.4 38.5 5.6 38 5.8 37.7C6.1 37.4 6.5 37.2 6.9 37.2C7.4 37.2 7.7 37.4 8 37.7C8.3 38 8.4 38.4 8.4 39V40.3ZM7.8 38.8C7.8 38.5 7.7 38.2 7.6 38C7.4 37.8 7.2 37.7 6.9 37.7C6.6 37.7 6.4 37.8 6.3 38C6.1 38.2 6.1 38.5 6.1 38.8V40.5C6.1 40.8 6.2 41.1 6.3 41.3C6.5 41.5 6.7 41.6 6.9 41.6C7.2 41.6 7.4 41.5 7.6 41.3C7.8 41.1 7.8 40.8 7.8 40.5V38.8ZM4.6 62.6C4.6 62.9 4.5 63.1 4.4 63.3C4.3 63.5 4.1 63.6 3.9 63.7C4.2 63.8 4.4 63.9 4.5 64.1C4.7 64.3 4.8 64.5 4.8 64.8C4.8 65.2 4.7 65.6 4.4 65.8C4 66.1 3.6 66.3 3.2 66.3C2.8 66.3 2.3 66.2 2.1 65.9C1.8 65.7 1.7 65.3 1.7 64.9C1.7 64.6 1.8 64.4 2 64.2C2.2 64 2.4 63.8 2.7 63.7C2.5 63.6 2.3 63.5 2.1 63.3C2 63.1 1.9 62.9 1.9 62.6C1.9 62.2 2.1 61.9 2.3 61.6C2.6 61.4 2.9 61.3 3.3 61.3C3.7 61.3 4 61.4 4.3 61.6C4.4 61.9 4.6 62.2 4.6 62.6ZM4.1 64.9C4.1 64.6 4 64.4 3.8 64.2C3.6 64 3.4 63.9 3.2 63.9C2.9 63.9 2.7 64 2.5 64.2C2.3 64.4 2.2 64.6 2.2 64.9C2.2 65.2 2.3 65.4 2.5 65.5C2.7 65.7 2.9 65.8 3.2 65.8C3.5 65.8 3.7 65.7 3.8 65.5C4 65.4 4.1 65.1 4.1 64.9ZM3.9 62.7C3.9 62.4 3.8 62.3 3.7 62.1C3.5 61.9 3.4 61.9 3.2 61.9C3 61.9 2.8 62 2.6 62.1C2.4 62.2 2.4 62.4 2.4 62.7C2.4 62.9 2.5 63.1 2.6 63.3C2.8 63.5 2.9 63.5 3.2 63.5C3.4 63.5 3.6 63.4 3.7 63.3C3.8 63.1 3.9 62.9 3.9 62.7ZM8.4 64.5C8.4 65 8.3 65.5 8 65.8C7.7 66.1 7.4 66.3 6.9 66.3C6.5 66.3 6.1 66.1 5.8 65.8C5.5 65.5 5.4 65 5.4 64.5V63.1C5.4 62.6 5.6 62.1 5.8 61.8C6.1 61.5 6.5 61.3 6.9 61.3C7.4 61.3 7.7 61.5 8 61.8C8.3 62.1 8.4 62.6 8.4 63.1V64.5ZM7.8 63C7.8 62.7 7.7 62.4 7.6 62.2C7.4 62 7.2 61.9 6.9 61.9C6.6 61.9 6.4 62 6.3 62.2C6.1 62.4 6.1 62.7 6.1 63V64.7C6.1 65 6.2 65.3 6.3 65.5C6.5 65.7 6.7 65.8 6.9 65.8C7.2 65.8 7.4 65.7 7.6 65.5C7.8 65.3 7.8 65 7.8 64.7V63ZM4.7 86.1C4.1 86.8 3.7 87.5 3.5 88C3.3 88.5 3.2 89.2 3.2 89.8V90.3H2.6V89.8C2.6 89.1 2.7 88.4 3 87.9C3.3 87.3 3.7 86.7 4.1 86.1H1.6V85.6H4.7V86.1ZM8.4 88.7C8.4 89.2 8.3 89.7 8 90C7.7 90.3 7.4 90.5 6.9 90.5C6.5 90.5 6.1 90.3 5.8 90C5.5 89.7 5.4 89.2 5.4 88.7V87.3C5.4 86.8 5.6 86.3 5.8 86C6.1 85.7 6.5 85.5 6.9 85.5C7.4 85.5 7.7 85.7 8 86C8.3 86.3 8.4 86.7 8.4 87.3V88.7ZM7.8 87.2C7.8 86.9 7.7 86.6 7.6 86.4C7.4 86.2 7.2 86.1 6.9 86.1C6.6 86.1 6.4 86.2 6.3 86.4C6.1 86.6 6.1 86.9 6.1 87.2V88.9C6.1 89.2 6.2 89.5 6.3 89.7C6.5 89.9 6.7 90 6.9 90C7.2 90 7.4 89.9 7.6 89.7C7.8 89.5 7.8 89.2 7.8 88.9V87.2ZM3.4 109.7C3.6 109.7 3.8 109.7 3.9 109.8C4.1 109.8 4.2 109.9 4.4 109.9L4.2 110.4C4.1 110.3 3.9 110.3 3.8 110.3C3.7 110.3 3.5 110.2 3.3 110.2C3 110.2 2.8 110.3 2.6 110.6C2.4 110.9 2.3 111.2 2.3 111.6V111.9C2.4 111.8 2.6 111.7 2.8 111.6C3 111.5 3.2 111.5 3.4 111.5C3.8 111.5 4.1 111.6 4.4 111.9C4.7 112.2 4.8 112.5 4.8 113C4.8 113.5 4.6 113.9 4.4 114.2C4.1 114.5 3.8 114.6 3.3 114.6C2.9 114.6 2.5 114.4 2.2 114.1C1.9 113.8 1.8 113.3 1.8 112.7V111.6C1.8 111 2 110.6 2.3 110.2C2.5 109.9 2.9 109.7 3.4 109.7ZM3.2 112C3 112 2.8 112 2.7 112.1C2.5 112.2 2.4 112.3 2.4 112.4V112.7C2.4 113.1 2.5 113.4 2.7 113.7C2.9 113.9 3.1 114 3.4 114C3.7 114 3.9 113.9 4 113.7C4.2 113.5 4.2 113.3 4.2 112.9C4.2 112.6 4.1 112.4 4 112.2C3.7 112.1 3.5 112 3.2 112ZM8.4 112.9C8.4 113.4 8.3 113.9 8 114.2C7.7 114.5 7.4 114.7 6.9 114.7C6.5 114.7 6.1 114.5 5.8 114.2C5.5 113.9 5.4 113.5 5.4 112.9V111.5C5.4 111 5.6 110.5 5.8 110.2C6.1 109.9 6.5 109.7 6.9 109.7C7.4 109.7 7.7 109.9 8 110.2C8.3 110.5 8.4 111 8.4 111.5V112.9ZM7.8 111.3C7.8 111 7.7 110.7 7.6 110.5C7.4 110.3 7.2 110.2 6.9 110.2C6.6 110.2 6.4 110.3 6.3 110.5C6.1 110.7 6.1 110.9 6.1 111.3V113C6.1 113.3 6.2 113.6 6.3 113.8C6.5 114 6.7 114.1 6.9 114.1C7.2 114.1 7.4 114 7.6 113.8C7.8 113.6 7.8 113.3 7.8 113V111.3ZM1.8 136.6L2.1 133.9H4.5V134.5H2.7L2.5 135.9C2.6 135.8 2.7 135.7 2.8 135.7C2.9 135.6 3.1 135.6 3.2 135.6C3.6 135.6 4 135.8 4.2 136C4.4 136.3 4.5 136.7 4.5 137.1C4.5 137.6 4.4 138 4.1 138.2C3.8 138.5 3.5 138.6 3 138.6C2.6 138.6 2.3 138.5 2 138.3C1.7 138.1 1.6 137.7 1.6 137.3H2.2C2.2 137.6 2.3 137.8 2.5 137.9C2.6 138.1 2.8 138.1 3.1 138.1C3.4 138.1 3.6 138 3.7 137.8C3.9 137.6 3.9 137.4 3.9 137C3.9 136.7 3.8 136.5 3.7 136.3C3.5 136.1 3.3 136 3.1 136C2.8 136 2.7 136 2.6 136.1C2.5 136.2 2.4 136.3 2.3 136.4L1.8 136.6ZM8.4 137.1C8.4 137.6 8.3 138.1 8 138.4C7.7 138.7 7.4 138.9 6.9 138.9C6.5 138.9 6.1 138.7 5.8 138.4C5.5 138.1 5.4 137.7 5.4 137.1V135.7C5.4 135.2 5.6 134.7 5.8 134.4C6.1 134.1 6.5 133.9 6.9 133.9C7.4 133.9 7.7 134.1 8 134.4C8.3 134.7 8.4 135.2 8.4 135.7V137.1ZM7.8 135.5C7.8 135.2 7.7 134.9 7.6 134.7C7.4 134.5 7.2 134.4 6.9 134.4C6.6 134.4 6.4 134.5 6.3 134.7C6.1 134.9 6.1 135.1 6.1 135.5V137.2C6.1 137.5 6.2 137.8 6.3 138C6.5 138.2 6.7 138.3 6.9 138.3C7.2 138.3 7.4 138.2 7.6 138C7.8 137.8 7.8 137.5 7.8 137.2V135.5ZM4.2 161.3H4.9V161.8H4.2V162.9H3.6V161.8H1.5V161.5L3.5 158.2H4.2V161.3ZM2.2 161.3H3.6V159.1L3.5 159.3L2.2 161.3ZM8.4 161.2C8.4 161.7 8.3 162.2 8 162.5C7.7 162.8 7.4 163 6.9 163C6.5 163 6.1 162.8 5.8 162.5C5.5 162.2 5.4 161.8 5.4 161.2V159.8C5.4 159.3 5.6 158.8 5.8 158.5C6.1 158.2 6.5 158 6.9 158C7.4 158 7.7 158.2 8 158.5C8.3 158.8 8.4 159.3 8.4 159.8V161.2ZM7.8 159.7C7.8 159.4 7.7 159.1 7.6 158.9C7.4 158.7 7.2 158.6 6.9 158.6C6.6 158.6 6.4 158.7 6.3 158.9C6.1 159.1 6.1 159.4 6.1 159.7V161.4C6.1 161.7 6.2 162 6.3 162.2C6.5 162.4 6.7 162.5 6.9 162.5C7.2 162.5 7.4 162.4 7.6 162.2C7.8 162 7.8 161.7 7.8 161.4V159.7ZM3.1 184.4C3.4 184.4 3.6 184.3 3.7 184.2C3.8 184 3.9 183.9 3.9 183.6C3.9 183.3 3.8 183.2 3.7 183C3.6 182.8 3.4 182.8 3.1 182.8C2.8 182.8 2.7 182.9 2.5 183C2.3 183.2 2.2 183.3 2.2 183.6H1.7C1.7 183.3 1.8 183 2.1 182.7C2.4 182.4 2.7 182.3 3.2 182.3C3.6 182.3 4 182.4 4.2 182.6C4.5 182.8 4.6 183.2 4.6 183.6C4.6 183.8 4.5 184 4.4 184.2C4.3 184.4 4.1 184.5 3.9 184.6C4.1 184.7 4.3 184.9 4.4 185C4.5 185.2 4.6 185.4 4.6 185.7C4.6 186.1 4.5 186.5 4.2 186.7C3.9 186.9 3.6 187 3.1 187C2.7 187 2.3 186.9 2 186.7C1.7 186.5 1.6 186.2 1.6 185.7H2.2C2.2 185.9 2.3 186.1 2.5 186.3C2.7 186.5 2.9 186.5 3.1 186.5C3.4 186.5 3.6 186.4 3.7 186.3C3.8 186.1 3.9 185.9 3.9 185.7C3.9 185.4 3.8 185.2 3.7 185C3.6 184.8 3.4 184.7 3 184.7H2.6V184.2H3.1V184.4ZM8.4 185.4C8.4 185.9 8.3 186.4 8 186.7C7.7 187 7.4 187.1 6.9 187.1C6.5 187.1 6.1 186.9 5.8 186.7C5.5 186.4 5.4 185.9 5.4 185.4V184C5.4 183.5 5.6 183 5.8 182.7C6.1 182.4 6.5 182.2 6.9 182.2C7.4 182.2 7.7 182.4 8 182.7C8.3 183 8.4 183.4 8.4 184V185.4ZM7.8 183.9C7.8 183.5 7.7 183.3 7.6 183.1C7.4 182.9 7.2 182.8 6.9 182.8C6.6 182.8 6.4 182.9 6.3 183.1C6.1 183.3 6.1 183.6 6.1 183.9V185.5C6.1 185.8 6.2 186.1 6.3 186.3C6.5 186.5 6.7 186.6 6.9 186.6C7.2 186.6 7.4 186.5 7.6 186.3C7.8 186.1 7.8 185.8 7.8 185.5V183.9ZM4.7 211.3H1.7V210.9L3.2 209.1C3.5 208.8 3.6 208.5 3.7 208.3C3.8 208.1 3.9 207.9 3.9 207.7C3.9 207.5 3.8 207.3 3.7 207.1C3.6 207 3.4 206.9 3.2 206.9C2.9 206.9 2.7 207 2.6 207.2C2.4 207.4 2.4 207.6 2.4 207.8H1.7C1.7 207.4 1.8 207.1 2.1 206.8C2.4 206.5 2.7 206.4 3.2 206.4C3.6 206.4 4 206.5 4.2 206.7C4.4 206.9 4.5 207.2 4.5 207.6C4.5 207.9 4.4 208.1 4.3 208.3C4.1 208.6 4 208.8 3.7 209.2L2.5 210.6H4.7V211.3ZM8.4 209.6C8.4 210.1 8.3 210.6 8 210.9C7.7 211.2 7.4 211.4 6.9 211.4C6.5 211.4 6.1 211.2 5.8 210.9C5.5 210.6 5.4 210.1 5.4 209.6V208.2C5.4 207.7 5.6 207.2 5.8 206.9C6.1 206.6 6.5 206.4 6.9 206.4C7.4 206.4 7.7 206.6 8 206.9C8.3 207.2 8.4 207.6 8.4 208.2V209.6ZM7.8 208.1C7.8 207.8 7.7 207.5 7.6 207.3C7.4 207.1 7.2 207 6.9 207C6.6 207 6.4 207.1 6.3 207.3C6.1 207.5 6.1 207.8 6.1 208.1V209.7C6.1 210 6.2 210.3 6.3 210.5C6.5 210.7 6.7 210.8 6.9 210.8C7.2 210.8 7.4 210.7 7.6 210.5C7.8 210.3 7.8 210 7.8 209.7V208.1ZM3.6 235.5H3V231.3H2V230.8L3.7 230.6V235.5H3.6ZM8.4 233.8C8.4 234.3 8.3 234.8 8 235.1C7.7 235.4 7.4 235.6 6.9 235.6C6.5 235.6 6.1 235.4 5.8 235.1C5.5 234.8 5.4 234.3 5.4 233.8V232.4C5.4 231.9 5.6 231.4 5.8 231.1C6.1 230.8 6.5 230.6 6.9 230.6C7.4 230.6 7.7 230.8 8 231.1C8.3 231.4 8.4 231.8 8.4 232.4V233.8ZM7.8 232.3C7.8 232 7.7 231.7 7.6 231.5C7.4 231.3 7.2 231.2 6.9 231.2C6.6 231.2 6.4 231.3 6.3 231.5C6.1 231.7 6.1 232 6.1 232.3V234C6.1 234.3 6.2 234.6 6.3 234.8C6.5 235 6.7 235.1 6.9 235.1C7.2 235.1 7.4 235 7.6 234.8C7.8 234.6 7.8 234.3 7.8 234V232.3ZM6.6 258C6.6 258.5 6.4 259 6.2 259.3C5.9 259.6 5.5 259.8 5.1 259.8C4.6 259.8 4.3 259.6 4 259.3C3.7 259 3.6 258.6 3.6 258V256.6C3.6 256.1 3.7 255.6 4 255.3C4.3 255 4.6 254.8 5.1 254.8C5.5 254.8 5.9 255 6.2 255.3C6.5 255.6 6.6 256 6.6 256.6V258ZM5.9 256.4C5.9 256.1 5.8 255.8 5.7 255.6C5.5 255.4 5.3 255.3 5.1 255.3C4.8 255.3 4.6 255.4 4.4 255.6C4.3 255.8 4.2 256.1 4.2 256.4V258.1C4.2 258.4 4.3 258.7 4.5 258.9C4.6 259.1 4.8 259.2 5.1 259.2C5.4 259.2 5.6 259.1 5.7 258.9C5.9 258.7 5.9 258.5 5.9 258.1V256.4Z" fill="#49545A"/>
<path d="M724 15.1H14V15.5H724V15.1Z" fill="#D5D5D5"/>
<path d="M13.9 15.1H13.5V259H13.9V15.1Z" fill="#D5D5D5"/>
<path d="M724 39.4H14V39.8H724V39.4Z" fill="#D5D5D5"/>
<path d="M724 63.8H14V64.2H724V63.8Z" fill="#D5D5D5"/>
<path d="M724 88.1H14V88.5H724V88.1Z" fill="#D5D5D5"/>
<path d="M724 112.5H14V112.9H724V112.5Z" fill="#D5D5D5"/>
<path d="M724 136.8H14V137.2H724V136.8Z" fill="#D5D5D5"/>
<path d="M724 161.2H14V161.6H724V161.2Z" fill="#D5D5D5"/>
<path d="M724 185.5H14V185.9H724V185.5Z" fill="#D5D5D5"/>
<path d="M724 209.9H14V210.3H724V209.9Z" fill="#D5D5D5"/>
<path d="M724 234.2H14V234.6H724V234.2Z" fill="#D5D5D5"/>
<path d="M724 258.6H14V259H724V258.6Z" fill="#D5D5D5"/>
<path d="M73.2 15.1H72.8V259H73.2V15.1Z" fill="#D5D5D5"/>
<path d="M132.4 15.1H132V259H132.4V15.1Z" fill="#D5D5D5"/>
<path d="M191.5 15.1H191.1V259H191.5V15.1Z" fill="#D5D5D5"/>
<path d="M250.8 15.1H250.4V259H250.8V15.1Z" fill="#D5D5D5"/>
<path d="M310 15.1H309.6V259H310V15.1Z" fill="#D5D5D5"/>
<path d="M369.1 15.1H368.7V259H369.1V15.1Z" fill="#D5D5D5"/>
<path d="M428.4 15.1H428V259H428.4V15.1Z" fill="#D5D5D5"/>
<path d="M487.6 15.1H487.2V259H487.6V15.1Z" fill="#D5D5D5"/>
<path d="M546.8 15.1H546.4V259H546.8V15.1Z" fill="#D5D5D5"/>
<path d="M606 15.1H605.6V259H606V15.1Z" fill="#D5D5D5"/>
<path d="M665.2 15.1H664.8V259H665.2V15.1Z" fill="#D5D5D5"/>
<path d="M60.5 185.3H24.9V209.9H60.5V185.3Z" fill="black"/>
<path d="M60.5 209.7H24.9V234.3H60.5V209.7Z" fill="#6F764D"/>
<path d="M60.5 234.4H24.9V259.1H60.5V234.4Z" fill="#6F764D"/>
<path d="M119.9 39.8H84.3V113.1H119.9V39.8Z" fill="black"/>
<path d="M119.9 112.5H84.3V185.8H119.9V112.5Z" fill="#6F764D"/>
<path d="M119.9 185.7H84.3V259H119.9V185.7Z" fill="#6F764D"/>
<path d="M179.2 112.9H143.6V193.9H179.2V112.9Z" fill="black"/>
<path d="M179.2 193.6H143.6V226.3H179.2V193.6Z" fill="#6F764D"/>
<path d="M179.2 226.3H143.6V259H179.2V226.3Z" fill="#6F764D"/>
<path d="M238.6 15.5H203V56.4H238.6V15.5Z" fill="black"/>
<path d="M238.6 56.4H203V218.1H238.6V56.4Z" fill="#6F764D"/>
<path d="M238.6 218.1H203V259H238.6V218.1Z" fill="#6F764D"/>
<path d="M298 64.2H262.4V113.3H298V64.2Z" fill="black"/>
<path d="M298 112.9H262.4V162H298V112.9Z" fill="#6F764D"/>
<path d="M298 162H262.4V259H298V162Z" fill="#6F764D"/>
<path d="M357.3 193.6H321.7V226.3H357.3V193.6Z" fill="#6F764D"/>
<path d="M357.3 226.3H321.7V259H357.3V226.3Z" fill="#6F764D"/>
<path d="M416.7 64.2H381.1V129.3H416.7V64.2Z" fill="black"/>
<path d="M416.7 128.8H381.1V193.9H416.7V128.8Z" fill="#6F764D"/>
<path d="M416.7 193.9H381.1V259H416.7V193.9Z" fill="#6F764D"/>
<path d="M476 39.8H440.4V161.1H476V39.8Z" fill="black"/>
<path d="M476 160.7H440.4V209.9H476V160.7Z" fill="#6F764D"/>
<path d="M476 209.9H440.4V259H476V209.9Z" fill="#6F764D"/>
<path d="M535.4 137.3H499.8V193.9H535.4V137.3Z" fill="black"/>
<path d="M535.4 193.6H499.8V226.3H535.4V193.6Z" fill="#6F764D"/>
<path d="M535.4 226.3H499.8V259H535.4V226.3Z" fill="#6F764D"/>
<path d="M594.7 88.5H559.1V173.7H594.7V88.5Z" fill="#6F764D"/>
<path d="M594.7 173.8H559.1V259H594.7V173.8Z" fill="#6F764D"/>
<path d="M654.1 63.8H618.5V129.1H654.1V63.8Z" fill="black"/>
<path d="M654.1 128.5H618.5V193.8H654.1V128.5Z" fill="#6F764D"/>
<path d="M654.1 193.7H618.5V259H654.1V193.7Z" fill="#6F764D"/>
<path d="M713.4 161.2H677.8V193.9H713.4V161.2Z" fill="black"/>
<path d="M713.4 193.6H677.8V226.3H713.4V193.6Z" fill="#6F764D"/>
<path d="M713.4 226.3H677.8V259H713.4V226.3Z" fill="#6F764D"/>
</g>
<rect y="15.1001" width="685" height="260" fill="url(#paint0_linear_618_43)"/>
<defs>
<linearGradient id="paint0_linear_618_43" x1="675" y1="144.755" x2="-5.39559e-07" y2="144.755" gradientUnits="userSpaceOnUse">
<stop offset="0.0599012" stop-color="white"/>
<stop offset="1" stop-color="white" stop-opacity="0"/>
</linearGradient>
</defs>
</svg>
