<svg width="118" height="40" viewBox="0 0 118 40" fill="none" xmlns="http://www.w3.org/2000/svg">
<g clip-path="url(#clip0_598_82)">
<path d="M118 0H0V40H118V0Z" fill="#ED1C24"/>
<path d="M17.6768 9.74498C16.9938 8.59061 15.9829 7.83894 14.4529 7.83894C12.9776 7.83894 11.3929 8.93961 11.147 10.443C10.5186 14.3356 20.163 12.7248 18.9062 20.4832C18.1686 25.1275 14.6715 28.4027 9.86294 28.4027C6.61173 28.4027 4.508 26.5503 3.33319 23.8926L6.77565 21.047C7.10351 22.8456 8.46956 24.4295 10.4367 24.4295C12.3218 24.4295 13.7425 22.8725 14.0431 21.0738C14.4256 18.6846 12.2945 18.0134 10.546 17.2886C7.73189 16.0537 5.73745 14.5503 6.31119 10.953C6.93958 7.14095 10.3547 4.02686 14.3163 4.02686C16.42 4.02686 19.1248 5.04699 20.3269 6.60404L17.6768 9.74498Z" fill="white"/>
<path d="M25.5453 12.7249L24.2338 20.8859C23.9606 22.604 23.8787 24.6712 26.119 24.6712C28.332 24.6712 28.9604 22.604 29.2336 20.8859L30.545 12.7249H34.9164L33.4684 21.6108C32.758 26.0134 30.0532 28.3222 25.4906 28.3222C20.928 28.3222 18.9882 26.0134 19.6985 21.6108L21.1466 12.7249H25.5453Z" fill="white"/>
<path d="M40.6812 14.1208C41.856 12.9665 43.5772 12.2416 45.2165 12.2416C49.5605 12.2416 51.5823 16.2416 50.9266 20.1879C50.2709 24.2953 47.047 28.2953 42.5117 28.2953C40.9544 28.2953 39.4244 27.6242 38.7414 26.3893H38.6867L37.1841 35.8658H32.8127L36.5284 12.7249H40.8997L40.6812 14.1208ZM46.5006 20.2685C46.8011 18.2282 45.8175 16.0537 43.5499 16.0537C41.3096 16.0537 39.5337 18.2282 39.2332 20.2685C38.9326 22.3088 39.9162 24.5101 42.1838 24.5101C44.4242 24.5101 46.1727 22.2819 46.5006 20.2685Z" fill="white"/>
<path d="M57.2924 14.3088H57.3471C58.4399 12.9933 59.8606 12.2416 61.4726 12.2416C62.101 12.2416 62.7293 12.4027 63.2211 12.6175L62.0736 16.6175C61.6092 16.2416 61.0081 16.0537 60.3524 16.0537C57.3197 16.0537 56.5821 18.6846 56.1996 21.0202L55.1067 27.8121H50.7354L53.1669 12.7249H57.5383L57.2924 14.3088Z" fill="white"/>
<path d="M65.9532 20.9665C65.68 22.8725 66.0352 25.0202 68.3302 25.0202C69.7782 25.0202 70.8437 24.1611 71.6087 22.9531L75.543 23.5973C73.9857 26.6041 71.0077 28.2953 67.7838 28.2953C63.0299 28.2953 60.6803 24.9665 61.4179 20.4027C62.1556 15.8121 65.1882 12.2416 70.1607 12.2416C75.1878 12.2416 76.8544 15.8926 76.144 20.4564L76.0621 20.9665H65.9532ZM72.3737 18.3088C72.401 16.7786 71.6634 15.2752 69.9694 15.2752C68.2209 15.2752 66.9914 16.7517 66.527 18.3088H72.3737Z" fill="white"/>
<path d="M82.3733 14.094H82.4279C83.4661 12.8859 85.0508 12.2416 86.4715 12.2416C88.3839 12.2416 89.75 13.0202 90.515 14.6041C91.6898 13.1275 93.575 12.2416 95.3508 12.2416C99.2578 12.2416 99.7495 15.141 99.2304 18.4161L97.7278 27.8121H93.3564L94.6405 19.8926C94.859 18.4161 95.4328 15.6779 93.2744 15.6779C90.8975 15.6779 90.4057 18.8457 90.1598 20.4027L88.985 27.8121H84.6136L85.8431 20.1611C86.089 18.6846 86.772 15.6779 84.5043 15.6779C82.0727 15.6779 81.6629 18.8188 81.417 20.4027L80.2422 27.8121H75.8708L78.3024 12.7249H82.6738L82.3733 14.094Z" fill="white"/>
<path d="M104.531 20.9665C104.257 22.8725 104.613 25.0202 106.908 25.0202C108.356 25.0202 109.421 24.1611 110.186 22.9531L114.12 23.5973C112.563 26.6041 109.585 28.2953 106.361 28.2953C101.607 28.2953 99.2576 24.9665 99.9953 20.4027C100.733 15.8121 103.766 12.2416 108.738 12.2416C113.765 12.2416 115.432 15.8926 114.721 20.4564L114.639 20.9665H104.531ZM110.924 18.3088C110.951 16.7786 110.213 15.2752 108.52 15.2752C106.771 15.2752 105.542 16.7517 105.077 18.3088H110.924Z" fill="white"/>
</g>
<defs>
<clipPath id="clip0_598_82">
<rect width="118" height="40" fill="white"/>
</clipPath>
</defs>
</svg>
