<svg width="160" height="33" viewBox="0 0 160 33" fill="none" xmlns="http://www.w3.org/2000/svg">
<g clip-path="url(#clip0_598_47)">
<path d="M147.045 28.8103C147.045 28.8103 147.512 28.622 148.214 27.963C148.916 27.3039 149.056 26.4565 149.711 25.6563C150.412 24.7618 151.956 23.3495 151.956 23.3495C151.956 23.3495 151.488 25.3267 151.067 26.2212C150.412 27.5393 149.711 27.963 149.711 27.963C149.711 27.963 150.085 28.1983 150.552 28.01C151.02 27.8217 151.535 27.5393 152.236 27.5864C152.938 27.6805 153.873 27.6805 154.762 27.1627C155.65 26.6448 156.445 26.0799 156.445 26.0799C156.445 26.0799 155.884 27.8217 153.639 28.8103C152.189 29.4223 150.506 29.4223 149.944 29.1399C149.43 28.8574 148.775 28.7162 148.308 28.8574C147.887 28.9515 147.045 28.8103 147.045 28.8103Z" fill="#00AEEF"/>
<path d="M154.294 19.5364C154.294 19.5364 154.294 21.2311 154.434 21.796C154.528 22.3609 154.434 23.1141 154.154 23.679C153.92 24.2439 153.499 25.0442 153.78 25.1854C154.06 25.3267 154.201 24.7147 154.809 24.2439C155.463 23.7732 156.633 23.2083 157.241 22.7846C158.27 22.1726 159.018 20.9957 159.018 20.9957C159.018 20.9957 158.55 23.632 156.399 25.1384C154.949 26.127 152.049 26.4094 152.049 26.4094C152.049 26.4094 152.376 26.127 152.517 25.4208C152.657 24.7147 152.751 23.2554 153.031 22.3138C153.405 21.4194 154.294 19.5364 154.294 19.5364Z" fill="#00AEEF"/>
<path d="M155.51 15.7233C155.51 15.7233 156.352 17.8417 156.445 18.4066C156.539 19.0186 156.399 20.7604 156.399 20.7604C156.399 20.7604 157.1 20.1484 157.755 19.0656C158.269 18.2183 159.018 17.9358 159.439 17.2768C159.86 16.6177 160.047 16.3352 160.047 16.3352C160.047 16.3352 159.626 18.2183 159.158 19.301C158.363 21.137 155.323 23.02 155.323 23.02C155.323 23.02 155.463 22.5022 155.557 21.4665C155.65 20.4308 155.37 19.2069 155.276 18.4537C155.183 17.6534 155.51 15.7233 155.51 15.7233Z" fill="#00AEEF"/>
<path d="M155.463 11.3923C155.463 11.3923 155.697 11.6747 156.212 12.475C156.726 13.2753 157.381 14.1227 157.428 14.5934C157.474 15.0642 157.708 15.6762 157.849 15.6291C157.989 15.582 157.989 15.0642 158.269 14.2168C158.503 13.3694 159.205 12.5692 159.345 11.9572C159.439 11.4393 159.626 10.7332 159.626 10.7332C159.626 10.7332 160 12.8516 159.532 14.5463C159.065 16.2411 158.082 17.0884 157.895 17.3238C157.755 17.5121 157.428 17.8416 157.428 17.8416C157.428 17.8416 157.568 17.9829 157.1 16.9472C156.633 15.8645 156.305 15.2054 155.884 14.4051C155.557 13.8873 155.463 11.3923 155.463 11.3923Z" fill="#00AEEF"/>
<path d="M154.388 7.86162C154.388 7.86162 155.557 8.52068 156.071 9.13266C156.679 9.79172 157.334 11.0157 157.568 10.9215C157.802 10.8745 157.568 9.83879 157.615 9.46219C157.662 9.03851 157.849 7.24964 157.755 6.77888C157.662 6.30812 157.521 5.60199 157.521 5.60199C157.521 5.60199 158.831 7.53209 158.831 8.94436C158.784 10.3566 158.878 10.6391 158.27 11.7218C157.942 12.2867 157.755 13.087 157.755 13.087C157.755 13.087 157.568 12.6633 157.1 12.0984C156.633 11.5335 155.65 10.592 155.323 9.69757C154.902 8.89728 154.388 7.86162 154.388 7.86162Z" fill="#00AEEF"/>
<path d="M152.61 4.47218C152.61 4.47218 152.938 4.75463 153.452 5.13124C153.967 5.50784 154.668 5.74322 155.042 6.11983C155.417 6.49643 155.884 6.92011 156.071 6.82596C156.258 6.73181 156.025 6.40228 155.744 5.60199C155.463 4.80171 155.463 4.00142 155.229 3.67189C154.996 3.34236 154.762 2.63623 154.762 2.63623C154.762 2.63623 156.212 3.76604 156.492 4.70756C156.773 5.64907 156.726 8.61483 156.726 8.61483C156.726 8.61483 156.446 8.23823 155.978 7.86162C155.463 7.48502 154.201 6.54351 153.78 6.21398C152.938 5.60199 152.61 4.47218 152.61 4.47218Z" fill="#00AEEF"/>
<path d="M151.441 1.31812C151.441 1.31812 152.61 1.64764 153.359 2.25963C154.107 2.91869 154.715 4.66048 154.715 4.66048C154.715 4.66048 153.499 4.0485 152.985 3.57774C152.47 3.10699 151.441 1.31812 151.441 1.31812Z" fill="#00AEEF"/>
<path d="M128.804 29.7518C128.804 29.7518 130.161 30.4579 131.19 30.3638C132.219 30.2696 133.201 29.9401 134.885 29.4693C136.615 29.0456 137.925 28.9044 138.673 29.0456C139.421 29.1869 140.778 29.3752 140.778 29.3752C140.778 29.3752 142.508 29.0927 143.911 29.0456C144.613 28.9986 145.548 29.1869 146.53 29.5164C147.512 29.8459 149.336 30.4108 150.319 30.4108C151.815 30.4108 152.938 29.8459 152.938 29.8459C152.938 29.8459 152.797 30.9287 149.243 31.2582C147.138 31.4465 146.25 31.3053 145.314 30.6933C144.379 30.0813 143.35 29.6105 142.929 29.5635C142.461 29.5635 141.76 29.6105 141.76 29.6105C141.76 29.6105 143.023 30.0813 143.677 30.5991C144.332 31.117 145.969 32.4351 145.969 32.4351L145.548 32.9058C145.548 32.9058 144.893 31.9643 143.864 31.2111C142.835 30.4579 141.386 29.7047 140.824 29.7047C140.263 29.7047 138.533 30.505 137.363 31.5877C136.288 32.6234 136.147 32.8588 136.147 32.8588L135.726 32.4351C135.726 32.4351 136.568 31.5877 137.691 30.8816C138.813 30.1284 139.982 29.5635 139.982 29.5635C139.982 29.5635 139.936 29.4693 139.281 29.5164C138.626 29.5635 138.065 29.6576 136.896 30.3638C135.726 31.0699 135.305 31.2582 134.277 31.3523C133.294 31.4936 131.33 31.2582 130.161 30.7874C129.085 30.3638 128.804 29.7518 128.804 29.7518Z" fill="#00AEEF"/>
<path d="M125.25 25.9387C125.25 25.9387 126.326 26.7861 126.84 27.0685C127.963 27.7276 128.945 27.3981 129.646 27.4922C130.348 27.5864 131.003 27.7747 131.19 27.8688C131.424 27.963 132.032 28.01 132.078 27.9159C132.125 27.7747 131.517 27.4922 131.003 26.6448C130.301 25.3738 129.88 23.3495 129.88 23.3495C129.88 23.3495 130.956 24.1028 131.891 25.3738C132.873 26.6448 132.733 27.3039 133.388 27.8688C134.089 28.4808 134.744 28.8103 134.744 28.8103C134.744 28.8103 133.856 28.7162 133.248 28.7632C132.593 28.8103 131.564 29.2811 130.582 29.234C129.646 29.234 127.869 29.1399 126.326 27.4451C125.39 26.3624 125.25 25.9387 125.25 25.9387Z" fill="#00AEEF"/>
<path d="M122.584 21.137C122.584 21.137 123.239 21.9843 124.127 22.7375C125.063 23.4908 126.466 23.9615 126.934 24.4793C127.401 25.0443 127.635 25.4679 127.869 25.3267C128.15 25.1855 127.682 24.7147 127.542 24.0086C127.355 23.3025 127.214 21.3724 127.355 20.6191C127.448 20.2425 127.401 19.6306 127.401 19.6306C127.401 19.6306 127.822 20.3367 128.337 21.5136C128.804 22.5492 128.758 24.3381 128.992 25.1384C129.179 25.9858 129.646 26.5507 129.646 26.5507C129.646 26.5507 128.196 26.4565 127.495 26.2211C126.793 25.9387 124.782 25.2326 124.034 23.9615C123.286 22.7375 122.584 21.137 122.584 21.137Z" fill="#00AEEF"/>
<path d="M121.695 16.3352C121.695 16.3352 121.976 17.0884 122.444 17.5121C122.911 17.9358 123.192 18.1711 123.753 18.8302C124.127 19.3009 125.016 20.9957 125.297 20.9486C125.531 20.9015 125.203 20.0071 125.25 19.1597C125.39 17.6533 126.326 15.9115 126.326 15.9115C126.326 15.9115 126.559 17.7474 126.466 18.8302C126.419 19.9129 126.045 21.1369 126.185 21.7489C126.326 22.3609 126.372 23.1611 126.372 23.1611C126.372 23.1611 124.969 22.2196 123.94 21.3252C122.958 20.4308 122.023 18.4065 121.882 17.7945C121.742 17.1355 121.695 16.3352 121.695 16.3352Z" fill="#00AEEF"/>
<path d="M122.07 10.9216C122.07 10.9216 121.882 13.6049 122.21 14.8288C122.724 16.806 124.268 18.0771 124.268 18.0771C124.268 18.0771 124.408 17.418 124.735 16.7119C125.063 16.0057 125.577 15.2996 125.811 14.7818C126.232 13.652 126.326 11.7219 126.326 11.7219C126.326 11.7219 125.951 12.2868 125.624 12.7104C125.297 13.1341 124.876 13.699 124.595 14.4522C124.268 15.2054 124.268 15.8645 123.894 15.9116C123.426 15.9587 123.8 15.2525 123.426 14.311C123.005 13.3695 122.444 12.3809 122.397 11.9102C122.257 11.3923 122.07 10.9216 122.07 10.9216Z" fill="#00AEEF"/>
<path d="M124.174 5.69617C124.174 5.69617 123.099 7.15551 122.958 8.47363C122.818 9.79175 122.911 10.8745 123.426 11.7689C123.753 12.3809 123.894 13.2753 123.894 13.2753C123.894 13.2753 124.081 12.8046 124.502 12.3338C124.923 11.8631 125.718 11.1569 126.232 10.2154C126.793 9.27391 127.261 8.04995 127.261 8.04995C127.261 8.04995 126.419 8.5207 125.905 8.99146C124.689 10.1213 124.081 11.1569 124.081 11.1569C124.081 11.1569 123.753 10.8274 123.847 10.4037C123.987 9.98005 124.034 9.27391 123.987 8.75608C123.94 8.23825 123.8 7.9558 123.894 7.34381C124.034 6.77891 124.174 5.69617 124.174 5.69617Z" fill="#00AEEF"/>
<path d="M127.074 2.68335C127.074 2.68335 125.671 3.57779 125.25 4.66052C124.969 5.50789 125.063 6.35525 124.923 7.24968C124.782 8.09704 124.969 8.70903 124.969 8.70903C124.969 8.70903 125.063 8.47365 125.577 7.95582C126.092 7.39091 126.887 7.06138 127.401 6.68478C128.617 5.83742 129.132 4.5193 129.132 4.5193C129.132 4.5193 128.43 5.17836 128.103 5.36666C127.776 5.55496 127.121 5.88449 126.606 6.21402C126.232 6.4494 125.951 7.20261 125.951 7.20261C125.951 7.20261 125.484 6.77893 125.671 6.30817C125.811 5.83741 126.045 5.50789 126.139 5.03713C126.232 4.56637 126.372 3.90732 126.559 3.53071C126.84 3.20118 127.074 2.68335 127.074 2.68335Z" fill="#00AEEF"/>
<path d="M128.103 2.63624C128.664 2.07133 130.301 1.45935 130.301 1.45935C130.301 1.45935 129.6 2.63624 128.851 3.38945C127.963 4.28389 126.887 4.80172 126.887 4.80172C126.887 4.80172 127.074 3.57775 128.103 2.63624Z" fill="#00AEEF"/>
<path d="M135.633 4.56635C137.129 4.56635 140.123 6.16692 140.123 8.33239C140.123 9.69759 139.094 10.592 139.094 10.592C139.094 10.592 139.141 11.3452 139.047 11.5806C138.86 12.0043 138.673 11.9101 138.392 12.2867C138.112 12.6633 138.018 13.2753 136.942 13.2753C135.867 13.2753 135.867 12.9458 135.352 12.9458C134.838 12.9458 134.464 13.4636 134.464 13.4636V17.3709C134.464 17.3709 134.557 17.8887 135.539 18.4066C136.521 18.9244 137.27 19.2539 137.597 19.2539C137.878 19.2539 137.878 18.9244 138.252 18.9244C138.626 18.9244 140.123 18.9244 140.123 19.6305C140.123 20.3367 139.374 20.8074 136.709 20.8074C134.043 20.8074 133.201 20.572 132.873 20.572C132.546 20.572 132.546 20.6191 132.546 21.0428C132.546 21.4665 132.546 22.0314 132.546 22.0314C132.546 22.0314 133.014 22.7375 133.528 23.02C134.089 23.3024 134.37 23.4437 134.978 23.4437C135.586 23.4437 136.475 23.2554 137.223 22.9258C137.971 22.5963 138.673 22.408 139.515 22.408C140.357 22.408 141.853 22.2197 141.853 21.3253C141.853 20.4308 141.526 20.1484 141.526 19.4893C141.526 18.8303 141.619 18.2183 141.292 17.8887C140.965 17.5592 139.515 16.5235 139.515 15.9116C139.515 15.2996 140.029 15.0642 140.123 14.7347C140.17 14.4051 140.123 14.2168 140.357 14.1227C140.59 14.0756 140.731 13.9815 140.731 13.9815L140.824 13.4166C140.824 13.4166 141.105 13.2753 141.245 13.1341C141.386 12.9929 141.526 12.8987 141.526 12.8987C141.526 12.8987 141.386 12.475 141.619 12.2397C141.853 11.9572 142.181 12.0514 142.414 12.0514C142.648 12.0514 143.397 11.9572 143.397 11.9572C143.397 11.9572 143.631 11.5335 143.911 11.3452C144.332 11.0157 145.548 10.8274 145.829 10.592C146.109 10.3566 146.437 9.74466 147.279 9.74466C150.552 9.74466 152.797 12.7575 152.797 14.3581C152.797 17.1355 151.02 20.525 148.495 20.525C146.53 20.525 146.671 21.137 146.671 21.7489C146.671 23.2554 148.167 23.5378 148.167 23.5378C148.167 23.5378 145.08 25.8916 141.479 25.8916C138.065 25.8916 134.651 24.6205 132.219 21.8902C130.535 20.0071 129.225 17.5592 129.225 14.1227C129.225 12.8046 129.225 12.5692 129.225 12.5692C129.225 12.5692 130.114 11.8631 130.675 11.5806C131.236 11.2982 132.453 10.592 132.453 10.0271C132.453 9.46221 132.219 9.22683 132.219 8.00286C132.219 7.43796 132.359 6.40229 132.873 5.69616C133.481 4.99003 134.51 4.56635 135.633 4.56635Z" fill="#00AEEF"/>
<path d="M140.965 0.941528C133.715 0.941528 127.869 6.82598 127.869 14.1227C127.869 21.4194 133.715 27.3039 140.965 27.3039C148.214 27.3039 154.06 21.4194 154.06 14.1227C154.06 6.87306 148.214 0.941528 140.965 0.941528ZM150.74 5.97862C151.441 6.7789 151.722 7.39089 151.722 7.39089C151.722 7.39089 151.254 7.86164 150.74 8.09702C150.225 8.3324 149.243 8.709 149.243 8.709C149.243 8.709 148.869 7.57919 148.588 6.96721C148.308 6.35522 147.98 5.64909 147.98 5.64909C147.98 5.64909 148.261 5.46079 148.682 5.13126C149.103 4.8488 149.383 4.56635 149.383 4.56635C149.383 4.56635 150.178 5.27248 150.74 5.97862ZM146.437 2.58917C146.437 2.58917 147.325 2.96578 147.933 3.43654C148.541 3.86022 149.196 4.42512 149.196 4.42512C149.196 4.42512 149.103 4.61343 148.775 4.8488C148.448 5.08418 147.933 5.31956 147.933 5.31956C147.933 5.31956 147.512 4.70758 147.138 4.23682C146.764 3.76607 146.063 2.96578 146.063 2.96578C146.063 2.96578 146.203 2.82455 146.296 2.7304C146.39 2.58917 146.437 2.58917 146.437 2.58917ZM144.706 5.31956C144.566 4.70758 144.239 4.14267 144.239 4.14267C144.239 4.14267 144.8 3.86022 145.127 3.62484C145.501 3.38946 145.782 3.15408 145.782 3.15408C145.782 3.15408 146.39 3.76606 146.858 4.33097C147.325 4.89588 147.606 5.46079 147.606 5.46079C147.606 5.46079 147.045 5.74324 146.343 6.02569C145.688 6.30815 144.847 6.44937 144.847 6.44937C144.847 6.44937 144.847 5.93154 144.706 5.31956ZM145.034 9.83882C145.034 9.83882 144.706 9.93297 143.724 9.98005C142.695 10.0271 141.806 9.98005 141.806 9.98005V7.06136C141.806 7.06136 142.602 7.10843 143.163 7.10843C143.724 7.10843 144.706 6.92013 144.706 6.92013C144.706 6.92013 144.753 7.39089 144.893 8.09702C145.034 8.80316 145.034 9.83882 145.034 9.83882ZM145.361 2.11842C145.735 2.21257 146.156 2.49502 146.156 2.49502L145.782 2.77748C145.782 2.77748 145.501 2.5421 145.267 2.30672C144.987 2.02427 144.426 1.88304 144.426 1.88304C144.426 1.88304 145.034 2.02427 145.361 2.11842ZM144.332 2.02427C144.987 2.40087 145.501 2.96578 145.501 2.96578C145.501 2.96578 145.267 3.15408 144.893 3.38946C144.566 3.62484 144.051 3.76607 144.051 3.76607C144.051 3.76607 143.771 3.05993 143.537 2.63625C143.35 2.25965 142.648 1.50644 142.648 1.50644C142.648 1.50644 143.677 1.64766 144.332 2.02427ZM141.76 1.41228C141.76 1.41228 142.461 1.22398 143.116 2.44795C143.443 3.10701 143.771 3.81314 143.771 3.81314C143.771 3.81314 143.256 3.95437 142.742 4.04852C142.227 4.09559 141.76 4.00144 141.76 4.00144V1.41228ZM141.76 4.42512C141.76 4.42512 142.274 4.4722 142.835 4.42512C143.397 4.37805 143.958 4.2839 143.958 4.2839C143.958 4.2839 144.145 4.4722 144.332 5.31956C144.519 6.07277 144.566 6.5906 144.566 6.5906C144.566 6.5906 143.958 6.7789 143.116 6.82598C142.274 6.87306 141.76 6.7789 141.76 6.7789V4.42512ZM141.339 1.41228L141.386 4.09559C141.386 4.09559 140.824 4.14267 140.216 3.95437C139.608 3.76606 139.328 3.57776 139.328 3.57776C139.328 3.57776 139.655 2.9187 140.076 2.30672C141.011 1.03568 141.339 1.41228 141.339 1.41228ZM140.544 1.36521C140.544 1.36521 139.936 1.93012 139.655 2.44795C139.374 2.96578 139 3.48361 139 3.48361C139 3.48361 138.533 3.29531 138.205 3.05993C137.878 2.82455 137.738 2.63625 137.738 2.63625C137.738 2.63625 138.252 2.02427 139.187 1.69474C140.123 1.36521 140.544 1.36521 140.544 1.36521ZM138.112 1.64766C138.579 1.50644 139 1.50644 139 1.50644C139 1.50644 138.439 1.78889 138.158 2.02427C137.831 2.25965 137.597 2.44795 137.597 2.44795C137.597 2.44795 137.457 2.3538 137.363 2.21257C137.317 2.07134 137.27 1.93012 137.27 1.93012C137.27 1.93012 137.597 1.78889 138.112 1.64766ZM141.011 26.9273C134.557 26.9273 128.243 21.7489 128.243 14.1698C128.243 4.6605 136.849 2.02427 136.849 2.02427L137.363 2.49502C137.363 2.49502 136.896 2.77748 136.521 3.20116C136.147 3.57776 135.913 3.90729 135.913 3.90729L136.147 4.09559C136.147 4.09559 136.428 3.71899 136.709 3.38946C137.036 3.15408 137.504 2.82455 137.504 2.82455C137.504 2.82455 137.925 3.29531 138.205 3.43654C138.486 3.57776 138.907 3.76607 138.907 3.76607C138.907 3.76607 138.86 4.00144 138.766 4.23682C138.673 4.51927 138.533 4.8488 138.533 4.8488L138.813 4.99003C138.813 4.99003 139 4.4722 139.094 4.2839C139.187 4.09559 139.281 3.86022 139.281 3.86022C139.281 3.86022 139.936 4.14267 140.497 4.23682C141.058 4.37805 141.432 4.33097 141.432 4.33097V6.5906H140.59V7.06136H141.432V9.88589H140.731V10.2154H141.432V11.2982H141.76V10.2625C141.76 10.2625 142.227 10.2625 143.397 10.2154C144.566 10.1683 145.314 10.0271 145.314 10.0271C145.314 10.0271 145.267 8.94438 145.174 8.1441C145.08 7.34381 144.893 6.73183 144.893 6.73183C144.893 6.73183 145.548 6.63768 146.296 6.35522C147.045 6.07277 147.653 5.74324 147.653 5.74324C147.653 5.74324 148.027 6.30815 148.354 7.15551C148.635 7.95579 148.962 8.80316 148.962 8.80316L148.448 9.03853L148.541 9.27391L149.103 9.08561L149.29 9.46221L149.524 9.36806L149.336 8.99146C149.336 8.99146 150.038 8.80316 150.74 8.42655C151.441 8.04995 151.956 7.72042 151.956 7.72042C151.956 7.72042 153.686 10.3567 153.686 14.1698C153.686 19.9601 149.243 26.9273 141.011 26.9273Z" fill="#00AEEF"/>
<path d="M14.7325 31.9173V28.5749L14.639 28.4808C13.0488 31.1641 11.0845 32.5763 7.38965 32.5763C4.06899 32.5293 0 30.9287 0 25.4679V8.99146H3.83514V24.1969C3.83514 27.9629 5.7527 29.234 8.23151 29.234C13.0488 29.234 14.4987 24.9501 14.4987 21.6077V8.99146H18.3338V31.9173H14.7325Z" fill="#00AEEF"/>
<path d="M42.6074 31.9173H38.7723V17.7946C38.7723 13.7932 37.6498 11.816 33.9082 11.816C31.71 11.816 27.9217 13.2283 27.9217 19.4422V31.9173H24.0865V8.99146H27.6878V12.2397H27.7813C28.6232 11.0157 30.7278 8.3324 34.6565 8.3324C38.1643 8.3324 42.6074 9.79174 42.6074 16.2882V31.9173Z" fill="#00AEEF"/>
<path d="M48.3601 4.80168V0.423645H52.1953V4.80168H48.3601ZM52.1953 31.9172H48.3601V8.99141H52.1953V31.9172Z" fill="#00AEEF"/>
<path d="M72.166 16.7119C71.6983 13.6519 69.9678 11.816 66.7875 11.816C62.0637 11.816 60.5203 16.3823 60.5203 20.4308C60.5203 24.3852 61.4557 29.234 66.7407 29.234C69.313 29.234 71.5112 27.3039 72.166 23.8203H75.8608C75.4867 27.4451 73.2417 32.5763 66.6004 32.5763C60.1929 32.5763 56.4045 27.7275 56.4045 21.0899C56.4045 13.9815 59.8187 8.3324 67.3487 8.3324C73.2885 8.3324 75.5802 12.7104 75.8608 16.7119H72.166Z" fill="#00AEEF"/>
<path d="M99.012 24.7147C98.8717 25.7975 97.8427 29.0457 94.943 30.9758C93.9141 31.6819 92.4174 32.5293 88.7694 32.5293C82.3619 32.5293 78.5735 27.6805 78.5735 21.0428C78.5735 13.9344 81.9877 8.28534 89.5177 8.28534C96.1122 8.28534 99.2926 13.5578 99.2926 21.6548H82.6425C82.6425 26.4094 84.8407 29.1869 89.2371 29.1869C92.8384 29.1869 94.9898 26.3624 95.1301 24.6677H99.012V24.7147ZM95.3639 18.5949C95.1768 15.0642 93.6802 11.7689 89.0032 11.7689C85.4955 11.7689 82.6893 15.0642 82.6893 18.5949H95.3639Z" fill="#00AEEF"/>
<path d="M108.647 12.1926V31.9173H104.811V12.1926H101.678V8.99144H104.811V5.03709C104.811 1.60057 107.01 0 110.751 0C111.312 0 111.874 0.0470756 112.482 0.0941512V3.57775C112.014 3.53067 111.406 3.4836 110.892 3.4836C109.255 3.4836 108.647 4.33096 108.647 6.1669V9.03852H112.482V12.2397H108.647" fill="#00AEEF"/>
</g>
<defs>
<clipPath id="clip0_598_47">
<rect width="160" height="33" fill="white"/>
</clipPath>
</defs>
</svg>
