<svg style="display: none;" aria-hidden="true" xmlns="http://www.w3.org/2000/svg" xmlns:xlink="http://www.w3.org/1999/xlink"><symbol viewBox="0 0 63 24" id="arrow"><path d="M62.0607 13.0607C62.6464 12.4749 62.6464 11.5251 62.0607 10.9393L52.5147 1.3934C51.9289 0.807612 50.9792 0.807612 50.3934 1.3934C49.8076 1.97918 49.8076 2.92893 50.3934 3.51472L58.8787 12L50.3934 20.4853C49.8076 21.0711 49.8076 22.0208 50.3934 22.6066C50.9792 23.1924 51.9289 23.1924 52.5147 22.6066L62.0607 13.0607ZM0 13.5H61V10.5H0V13.5Z"/></symbol><symbol viewBox="0 0 9 17" id="facebook"><path d="M8.70995 1.08893V3.46655C8.70995 3.46655 5.98017 3.07033 5.98017 4.83144V6.59255H8.44576L8.13766 9.27827H5.98017V16.2788H3.25039V9.27827L0.916824 9.23421V6.59255H3.20633V4.56724C3.20633 4.56724 3.05524 1.55436 6.02423 1.00097C7.2571 0.771054 8.70995 1.08893 8.70995 1.08893Z"/></symbol><symbol viewBox="0 0 50 50" id="gear"><path d="M21.5104 8.99375C22.3979 5.33542 27.6021 5.33542 28.4896 8.99375C28.6227 9.54333 28.8838 10.0537 29.2515 10.4833C29.6192 10.913 30.0831 11.2497 30.6055 11.4661C31.1279 11.6826 31.6941 11.7726 32.2579 11.7289C32.8217 11.6852 33.3672 11.509 33.85 11.2146C37.0646 9.25625 40.7458 12.9354 38.7875 16.1521C38.4935 16.6347 38.3176 17.1799 38.274 17.7433C38.2304 18.3067 38.3203 18.8724 38.5365 19.3945C38.7527 19.9166 39.089 20.3804 39.5182 20.748C39.9473 21.1157 40.4572 21.3769 41.0062 21.5104C44.6646 22.3979 44.6646 27.6021 41.0062 28.4896C40.4567 28.6227 39.9463 28.8838 39.5167 29.2515C39.087 29.6192 38.7503 30.0831 38.5339 30.6055C38.3174 31.1279 38.2274 31.6941 38.2711 32.2579C38.3148 32.8217 38.491 33.3672 38.7854 33.85C40.7437 37.0646 37.0646 40.7458 33.8479 38.7875C33.3653 38.4935 32.8201 38.3176 32.2567 38.274C31.6933 38.2304 31.1276 38.3203 30.6055 38.5365C30.0834 38.7527 29.6196 39.089 29.252 39.5182C28.8843 39.9473 28.6231 40.4572 28.4896 41.0062C27.6021 44.6646 22.3979 44.6646 21.5104 41.0062C21.3773 40.4567 21.1162 39.9463 20.7485 39.5167C20.3808 39.087 19.9169 38.7503 19.3945 38.5339C18.8721 38.3174 18.3059 38.2274 17.7421 38.2711C17.1783 38.3148 16.6328 38.491 16.15 38.7854C12.9354 40.7437 9.25417 37.0646 11.2125 33.8479C11.5065 33.3653 11.6824 32.8201 11.726 32.2567C11.7696 31.6933 11.6797 31.1276 11.4635 30.6055C11.2473 30.0834 10.911 29.6196 10.4818 29.252C10.0527 28.8843 9.54284 28.6231 8.99375 28.4896C5.33542 27.6021 5.33542 22.3979 8.99375 21.5104C9.54333 21.3773 10.0537 21.1162 10.4833 20.7485C10.913 20.3808 11.2497 19.9169 11.4661 19.3945C11.6826 18.8721 11.7726 18.3059 11.7289 17.7421C11.6852 17.1783 11.509 16.6328 11.2146 16.15C9.25625 12.9354 12.9354 9.25417 16.1521 11.2125C18.2271 12.4792 20.9354 11.3583 21.5104 8.99375Z" stroke-width="3" stroke-linecap="round" stroke-linejoin="round"/><path d="M31.25 25C31.25 26.6576 30.5915 28.2473 29.4194 29.4194C28.2473 30.5915 26.6576 31.25 25 31.25C23.3424 31.25 21.7527 30.5915 20.5806 29.4194C19.4085 28.2473 18.75 26.6576 18.75 25C18.75 23.3424 19.4085 21.7527 20.5806 20.5806C21.7527 19.4085 23.3424 18.75 25 18.75C26.6576 18.75 28.2473 19.4085 29.4194 20.5806C30.5915 21.7527 31.25 23.3424 31.25 25V25Z" stroke-width="3" stroke-linecap="round" stroke-linejoin="round"/></symbol><symbol viewBox="0 0 17 15" id="heart"><path d="M15.6891 1.32611C15.2738 0.905694 14.7806 0.572191 14.2377 0.344652C13.6949 0.117114 13.1131 0 12.5255 0C11.9379 0 11.3561 0.117114 10.8133 0.344652C10.2704 0.572191 9.77724 0.905694 9.36186 1.32611L8.49978 2.19821L7.63771 1.32611C6.79866 0.477297 5.66066 0.000439969 4.47407 0.000439978C3.28747 0.000439986 2.14947 0.477297 1.31042 1.32611C0.471374 2.17492 8.84083e-09 3.32616 0 4.52656C-8.84083e-09 5.72696 0.471374 6.87819 1.31042 7.727L2.1725 8.5991L8.49978 15L14.8271 8.5991L15.6891 7.727C16.1047 7.30679 16.4344 6.80785 16.6593 6.25871C16.8842 5.70957 17 5.12097 17 4.52656C17 3.93214 16.8842 3.34355 16.6593 2.7944C16.4344 2.24526 16.1047 1.74633 15.6891 1.32611V1.32611Z"/></symbol><symbol viewBox="0 0 15 15" id="instagram"><path d="M7.49842 0.485042C4.62387 0.485042 1.8942 0.229334 0.851579 2.90517C0.420912 4.01033 0.483454 5.44563 0.483454 7.50079C0.483454 9.30421 0.425662 10.9992 0.851579 12.0956C1.89183 14.773 4.64366 14.5165 7.49683 14.5165C10.2495 14.5165 13.0876 14.8031 14.1429 12.0956C14.5743 10.9794 14.511 9.56546 14.511 7.50079C14.511 4.76004 14.6622 2.99067 13.333 1.66225C11.9872 0.316417 10.1671 0.485042 7.49525 0.485042H7.49842ZM6.86983 1.74933C12.8659 1.73983 13.6291 1.07325 13.2079 10.3334C13.0583 13.6085 10.5645 13.2491 7.49921 13.2491C1.91004 13.2491 1.74933 13.0892 1.74933 7.49763C1.74933 1.84117 2.19266 1.7525 6.86983 1.74775V1.74933ZM11.243 2.91388C10.7783 2.91388 10.4015 3.29071 10.4015 3.75542C10.4015 4.22013 10.7783 4.59696 11.243 4.59696C11.7077 4.59696 12.0845 4.22013 12.0845 3.75542C12.0845 3.29071 11.7077 2.91388 11.243 2.91388ZM7.49842 3.89792C5.50896 3.89792 3.89633 5.51133 3.89633 7.50079C3.89633 9.49025 5.50896 11.1029 7.49842 11.1029C9.48788 11.1029 11.0997 9.49025 11.0997 7.50079C11.0997 5.51133 9.48788 3.89792 7.49842 3.89792ZM7.49842 5.16221C10.5899 5.16221 10.5938 9.83938 7.49842 9.83938C4.40775 9.83938 4.403 5.16221 7.49842 5.16221Z"/></symbol><symbol viewBox="0 0 50 50" id="search"><path d="M43.75 43.75L31.25 31.25L43.75 43.75ZM35.4167 20.8333C35.4167 22.7484 35.0395 24.6448 34.3066 26.4141C33.5737 28.1835 32.4995 29.7911 31.1453 31.1453C29.7911 32.4995 28.1835 33.5737 26.4141 34.3066C24.6448 35.0395 22.7484 35.4167 20.8333 35.4167C18.9182 35.4167 17.0219 35.0395 15.2525 34.3066C13.4832 33.5737 11.8755 32.4995 10.5214 31.1453C9.16717 29.7911 8.09297 28.1835 7.36009 26.4141C6.62721 24.6448 6.25 22.7484 6.25 20.8333C6.25 16.9656 7.78645 13.2563 10.5214 10.5214C13.2563 7.78645 16.9656 6.25 20.8333 6.25C24.7011 6.25 28.4104 7.78645 31.1453 10.5214C33.8802 13.2563 35.4167 16.9656 35.4167 20.8333Z" stroke-width="3" stroke-linecap="round" stroke-linejoin="round"/></symbol><symbol viewBox="0 0 16 16" id="star"><path d="M7.0589 1.61934C7.37597 0.736846 8.62403 0.736849 8.9411 1.61935L10.1739 5.05065C10.3128 5.43713 10.6738 5.69942 11.0843 5.71205L14.7286 5.82421C15.6659 5.85306 16.0516 7.04003 15.3102 7.61429L12.4278 9.84712C12.1032 10.0986 11.9653 10.523 12.0801 10.9173L13.0996 14.4179C13.3618 15.3182 12.3521 16.0518 11.5769 15.5242L8.56262 13.4729C8.22312 13.2418 7.77688 13.2418 7.43738 13.4729L4.42313 15.5242C3.64789 16.0518 2.63819 15.3182 2.90039 14.4179L3.91989 10.9173C4.03471 10.523 3.89682 10.0986 3.57217 9.84712L0.689763 7.61429C-0.051562 7.04003 0.334112 5.85306 1.2714 5.82421L4.91573 5.71205C5.3262 5.69942 5.68721 5.43713 5.82607 5.05065L7.0589 1.61934Z"/></symbol></svg>