<svg width="15" height="15" viewBox="0 0 15 15" fill="none" xmlns="http://www.w3.org/2000/svg">
<path d="M7.49842 0.485042C4.62387 0.485042 1.8942 0.229334 0.851579 2.90517C0.420912 4.01033 0.483454 5.44563 0.483454 7.50079C0.483454 9.30421 0.425662 10.9992 0.851579 12.0956C1.89183 14.773 4.64366 14.5165 7.49683 14.5165C10.2495 14.5165 13.0876 14.8031 14.1429 12.0956C14.5743 10.9794 14.511 9.56546 14.511 7.50079C14.511 4.76004 14.6622 2.99067 13.333 1.66225C11.9872 0.316417 10.1671 0.485042 7.49525 0.485042H7.49842ZM6.86983 1.74933C12.8659 1.73983 13.6291 1.07325 13.2079 10.3334C13.0583 13.6085 10.5645 13.2491 7.49921 13.2491C1.91004 13.2491 1.74933 13.0892 1.74933 7.49763C1.74933 1.84117 2.19266 1.7525 6.86983 1.74775V1.74933ZM11.243 2.91388C10.7783 2.91388 10.4015 3.29071 10.4015 3.75542C10.4015 4.22013 10.7783 4.59696 11.243 4.59696C11.7077 4.59696 12.0845 4.22013 12.0845 3.75542C12.0845 3.29071 11.7077 2.91388 11.243 2.91388ZM7.49842 3.89792C5.50896 3.89792 3.89633 5.51133 3.89633 7.50079C3.89633 9.49025 5.50896 11.1029 7.49842 11.1029C9.48788 11.1029 11.0997 9.49025 11.0997 7.50079C11.0997 5.51133 9.48788 3.89792 7.49842 3.89792ZM7.49842 5.16221C10.5899 5.16221 10.5938 9.83938 7.49842 9.83938C4.40775 9.83938 4.403 5.16221 7.49842 5.16221Z" fill="white"/>
</svg>
